M48
; DRILL file {KiCad 7.0.9} date Do 29 Feb 2024 00:37:56
; FORMAT={-:-/ absolute / metric / decimal}
; #@! TF.CreationDate,2024-02-29T00:37:56+01:00
; #@! TF.GenerationSoftware,Kicad,Pcbnew,7.0.9
; #@! TF.FileFunction,Plated,1,2,PTH
FMAT,2
METRIC
; #@! TA.AperFunction,Plated,PTH,ViaDrill
T1C0.400
; #@! TA.AperFunction,Plated,PTH,ComponentDrill
T2C0.700
%
G90
G05
T1
X47.419Y-70.501
X47.432Y-66.212
X49.05Y-51.811
X49.112Y-70.501
X49.115Y-58.286
X49.124Y-66.212
X49.25Y-50.142
X49.53Y-42.926
X50.8Y-40.894
X50.8Y-42.164
X50.804Y-70.501
X50.817Y-66.212
X51.401Y-56.622
X52.497Y-70.501
X52.509Y-66.212
X52.544Y-61.715
X52.925Y-57.13
X54.189Y-70.501
X54.195Y-62.35
X54.202Y-66.212
X54.703Y-36.569
X54.83Y-47.237
X55.52Y-38.672
X55.808Y-54.984
X56.635Y-38.672
X57.75Y-38.672
X63.261Y-38.411
X64.355Y-60.572
X64.75Y-38.672
X65.244Y-54.857
X65.865Y-38.672
X66.98Y-38.672
X68.057Y-70.501
X68.07Y-66.212
X68.292Y-52.317
X68.31Y-61.881
X68.546Y-54.895
X69.054Y-49.396
X69.308Y-58.959
X69.75Y-70.501
X69.763Y-66.212
X70.605Y-54.932
X71.442Y-70.501
X71.455Y-66.212
X73.135Y-70.501
X73.147Y-66.212
X73.745Y-46.483
X73.745Y-52.072
X73.753Y-53.841
X73.88Y-58.667
X74.007Y-33.14
X74.828Y-70.501
X74.84Y-66.212
X75.26Y-61.881
T2
X73.958Y-40.654
X73.958Y-41.904
X73.958Y-43.154
T0
M30
