G04 #@! TF.GenerationSoftware,KiCad,Pcbnew,7.0.9*
G04 #@! TF.CreationDate,2024-02-29T00:36:21+01:00*
G04 #@! TF.ProjectId,Mad_PlantBug,4d61645f-506c-4616-9e74-4275672e6b69,rev?*
G04 #@! TF.SameCoordinates,Original*
G04 #@! TF.FileFunction,Legend,Top*
G04 #@! TF.FilePolarity,Positive*
%FSLAX46Y46*%
G04 Gerber Fmt 4.6, Leading zero omitted, Abs format (unit mm)*
G04 Created by KiCad (PCBNEW 7.0.9) date 2024-02-29 00:36:21*
%MOMM*%
%LPD*%
G01*
G04 APERTURE LIST*
G04 Aperture macros list*
%AMRoundRect*
0 Rectangle with rounded corners*
0 $1 Rounding radius*
0 $2 $3 $4 $5 $6 $7 $8 $9 X,Y pos of 4 corners*
0 Add a 4 corners polygon primitive as box body*
4,1,4,$2,$3,$4,$5,$6,$7,$8,$9,$2,$3,0*
0 Add four circle primitives for the rounded corners*
1,1,$1+$1,$2,$3*
1,1,$1+$1,$4,$5*
1,1,$1+$1,$6,$7*
1,1,$1+$1,$8,$9*
0 Add four rect primitives between the rounded corners*
20,1,$1+$1,$2,$3,$4,$5,0*
20,1,$1+$1,$4,$5,$6,$7,0*
20,1,$1+$1,$6,$7,$8,$9,0*
20,1,$1+$1,$8,$9,$2,$3,0*%
G04 Aperture macros list end*
%ADD10C,0.150000*%
%ADD11C,0.200000*%
%ADD12C,0.152400*%
%ADD13C,0.100000*%
%ADD14C,0.120000*%
%ADD15C,0.127000*%
%ADD16RoundRect,0.160000X-0.197500X-0.160000X0.197500X-0.160000X0.197500X0.160000X-0.197500X0.160000X0*%
%ADD17RoundRect,0.218750X-0.256250X0.218750X-0.256250X-0.218750X0.256250X-0.218750X0.256250X0.218750X0*%
%ADD18R,1.100000X1.100000*%
%ADD19C,1.100000*%
%ADD20RoundRect,0.225000X0.250000X-0.225000X0.250000X0.225000X-0.250000X0.225000X-0.250000X-0.225000X0*%
%ADD21RoundRect,0.218750X0.256250X-0.218750X0.256250X0.218750X-0.256250X0.218750X-0.256250X-0.218750X0*%
%ADD22RoundRect,0.160000X0.197500X0.160000X-0.197500X0.160000X-0.197500X-0.160000X0.197500X-0.160000X0*%
%ADD23RoundRect,0.160000X-0.160000X0.197500X-0.160000X-0.197500X0.160000X-0.197500X0.160000X0.197500X0*%
%ADD24RoundRect,0.190500X0.206500X-0.516500X0.206500X0.516500X-0.206500X0.516500X-0.206500X-0.516500X0*%
%ADD25R,1.198880X0.698500*%
%ADD26R,0.698500X1.198880*%
%ADD27R,0.475000X0.300000*%
%ADD28RoundRect,0.250000X-0.250000X0.250000X-0.250000X-0.250000X0.250000X-0.250000X0.250000X0.250000X0*%
%ADD29RoundRect,0.237500X-0.237500X0.250000X-0.237500X-0.250000X0.237500X-0.250000X0.237500X0.250000X0*%
%ADD30RoundRect,0.140351X0.259649X-0.469899X0.259649X0.469899X-0.259649X0.469899X-0.259649X-0.469899X0*%
%ADD31RoundRect,0.140351X0.259649X-0.451649X0.259649X0.451649X-0.259649X0.451649X-0.259649X-0.451649X0*%
%ADD32RoundRect,0.237500X0.300000X0.237500X-0.300000X0.237500X-0.300000X-0.237500X0.300000X-0.237500X0*%
%ADD33RoundRect,0.225000X-0.250000X0.225000X-0.250000X-0.225000X0.250000X-0.225000X0.250000X0.225000X0*%
%ADD34RoundRect,0.225000X0.225000X0.250000X-0.225000X0.250000X-0.225000X-0.250000X0.225000X-0.250000X0*%
%ADD35C,2.100000*%
%ADD36RoundRect,0.150000X-0.512500X-0.150000X0.512500X-0.150000X0.512500X0.150000X-0.512500X0.150000X0*%
%ADD37RoundRect,0.237500X-0.300000X-0.237500X0.300000X-0.237500X0.300000X0.237500X-0.300000X0.237500X0*%
%ADD38R,1.000000X1.000000*%
%ADD39RoundRect,0.160000X0.160000X-0.197500X0.160000X0.197500X-0.160000X0.197500X-0.160000X-0.197500X0*%
%ADD40RoundRect,0.140000X0.140000X0.170000X-0.140000X0.170000X-0.140000X-0.170000X0.140000X-0.170000X0*%
%ADD41R,0.800000X0.500000*%
%ADD42R,0.500000X1.000000*%
%ADD43C,0.850000*%
%ADD44R,0.500000X0.800000*%
%ADD45R,1.000000X0.500000*%
G04 APERTURE END LIST*
D10*
X54005350Y-65498866D02*
X53972017Y-65532200D01*
X53972017Y-65532200D02*
X53872017Y-65565533D01*
X53872017Y-65565533D02*
X53805350Y-65565533D01*
X53805350Y-65565533D02*
X53705350Y-65532200D01*
X53705350Y-65532200D02*
X53638684Y-65465533D01*
X53638684Y-65465533D02*
X53605350Y-65398866D01*
X53605350Y-65398866D02*
X53572017Y-65265533D01*
X53572017Y-65265533D02*
X53572017Y-65165533D01*
X53572017Y-65165533D02*
X53605350Y-65032200D01*
X53605350Y-65032200D02*
X53638684Y-64965533D01*
X53638684Y-64965533D02*
X53705350Y-64898866D01*
X53705350Y-64898866D02*
X53805350Y-64865533D01*
X53805350Y-64865533D02*
X53872017Y-64865533D01*
X53872017Y-64865533D02*
X53972017Y-64898866D01*
X53972017Y-64898866D02*
X54005350Y-64932200D01*
X54138684Y-65632200D02*
X54672017Y-65632200D01*
X54805350Y-65532200D02*
X54905350Y-65565533D01*
X54905350Y-65565533D02*
X55072017Y-65565533D01*
X55072017Y-65565533D02*
X55138683Y-65532200D01*
X55138683Y-65532200D02*
X55172017Y-65498866D01*
X55172017Y-65498866D02*
X55205350Y-65432200D01*
X55205350Y-65432200D02*
X55205350Y-65365533D01*
X55205350Y-65365533D02*
X55172017Y-65298866D01*
X55172017Y-65298866D02*
X55138683Y-65265533D01*
X55138683Y-65265533D02*
X55072017Y-65232200D01*
X55072017Y-65232200D02*
X54938683Y-65198866D01*
X54938683Y-65198866D02*
X54872017Y-65165533D01*
X54872017Y-65165533D02*
X54838683Y-65132200D01*
X54838683Y-65132200D02*
X54805350Y-65065533D01*
X54805350Y-65065533D02*
X54805350Y-64998866D01*
X54805350Y-64998866D02*
X54838683Y-64932200D01*
X54838683Y-64932200D02*
X54872017Y-64898866D01*
X54872017Y-64898866D02*
X54938683Y-64865533D01*
X54938683Y-64865533D02*
X55105350Y-64865533D01*
X55105350Y-64865533D02*
X55205350Y-64898866D01*
X55772017Y-65532200D02*
X55705350Y-65565533D01*
X55705350Y-65565533D02*
X55572017Y-65565533D01*
X55572017Y-65565533D02*
X55505350Y-65532200D01*
X55505350Y-65532200D02*
X55472017Y-65465533D01*
X55472017Y-65465533D02*
X55472017Y-65198866D01*
X55472017Y-65198866D02*
X55505350Y-65132200D01*
X55505350Y-65132200D02*
X55572017Y-65098866D01*
X55572017Y-65098866D02*
X55705350Y-65098866D01*
X55705350Y-65098866D02*
X55772017Y-65132200D01*
X55772017Y-65132200D02*
X55805350Y-65198866D01*
X55805350Y-65198866D02*
X55805350Y-65265533D01*
X55805350Y-65265533D02*
X55472017Y-65332200D01*
X56105350Y-65098866D02*
X56105350Y-65565533D01*
X56105350Y-65165533D02*
X56138684Y-65132200D01*
X56138684Y-65132200D02*
X56205350Y-65098866D01*
X56205350Y-65098866D02*
X56305350Y-65098866D01*
X56305350Y-65098866D02*
X56372017Y-65132200D01*
X56372017Y-65132200D02*
X56405350Y-65198866D01*
X56405350Y-65198866D02*
X56405350Y-65565533D01*
X56705350Y-65532200D02*
X56772017Y-65565533D01*
X56772017Y-65565533D02*
X56905350Y-65565533D01*
X56905350Y-65565533D02*
X56972017Y-65532200D01*
X56972017Y-65532200D02*
X57005350Y-65465533D01*
X57005350Y-65465533D02*
X57005350Y-65432200D01*
X57005350Y-65432200D02*
X56972017Y-65365533D01*
X56972017Y-65365533D02*
X56905350Y-65332200D01*
X56905350Y-65332200D02*
X56805350Y-65332200D01*
X56805350Y-65332200D02*
X56738683Y-65298866D01*
X56738683Y-65298866D02*
X56705350Y-65232200D01*
X56705350Y-65232200D02*
X56705350Y-65198866D01*
X56705350Y-65198866D02*
X56738683Y-65132200D01*
X56738683Y-65132200D02*
X56805350Y-65098866D01*
X56805350Y-65098866D02*
X56905350Y-65098866D01*
X56905350Y-65098866D02*
X56972017Y-65132200D01*
X57572017Y-65532200D02*
X57505350Y-65565533D01*
X57505350Y-65565533D02*
X57372017Y-65565533D01*
X57372017Y-65565533D02*
X57305350Y-65532200D01*
X57305350Y-65532200D02*
X57272017Y-65465533D01*
X57272017Y-65465533D02*
X57272017Y-65198866D01*
X57272017Y-65198866D02*
X57305350Y-65132200D01*
X57305350Y-65132200D02*
X57372017Y-65098866D01*
X57372017Y-65098866D02*
X57505350Y-65098866D01*
X57505350Y-65098866D02*
X57572017Y-65132200D01*
X57572017Y-65132200D02*
X57605350Y-65198866D01*
X57605350Y-65198866D02*
X57605350Y-65265533D01*
X57605350Y-65265533D02*
X57272017Y-65332200D01*
X50530350Y-44268033D02*
X50530350Y-43568033D01*
X50530350Y-43568033D02*
X50797017Y-43568033D01*
X50797017Y-43568033D02*
X50863684Y-43601366D01*
X50863684Y-43601366D02*
X50897017Y-43634700D01*
X50897017Y-43634700D02*
X50930350Y-43701366D01*
X50930350Y-43701366D02*
X50930350Y-43801366D01*
X50930350Y-43801366D02*
X50897017Y-43868033D01*
X50897017Y-43868033D02*
X50863684Y-43901366D01*
X50863684Y-43901366D02*
X50797017Y-43934700D01*
X50797017Y-43934700D02*
X50530350Y-43934700D01*
X51163684Y-43568033D02*
X51330350Y-44268033D01*
X51330350Y-44268033D02*
X51463684Y-43768033D01*
X51463684Y-43768033D02*
X51597017Y-44268033D01*
X51597017Y-44268033D02*
X51763684Y-43568033D01*
X52430350Y-44268033D02*
X52197017Y-43934700D01*
X52030350Y-44268033D02*
X52030350Y-43568033D01*
X52030350Y-43568033D02*
X52297017Y-43568033D01*
X52297017Y-43568033D02*
X52363684Y-43601366D01*
X52363684Y-43601366D02*
X52397017Y-43634700D01*
X52397017Y-43634700D02*
X52430350Y-43701366D01*
X52430350Y-43701366D02*
X52430350Y-43801366D01*
X52430350Y-43801366D02*
X52397017Y-43868033D01*
X52397017Y-43868033D02*
X52363684Y-43901366D01*
X52363684Y-43901366D02*
X52297017Y-43934700D01*
X52297017Y-43934700D02*
X52030350Y-43934700D01*
X61880000Y-75930000D02*
X61180000Y-76980000D01*
X60430000Y-75870000D01*
X61880000Y-75930000D01*
G36*
X61880000Y-75930000D02*
G01*
X61180000Y-76980000D01*
X60430000Y-75870000D01*
X61880000Y-75930000D01*
G37*
D11*
X61180000Y-75820000D02*
X61200000Y-75420000D01*
D10*
X50045000Y-78000000D02*
X51695000Y-78000000D01*
X52295000Y-78000000D02*
X53945000Y-78000000D01*
X54545000Y-78000000D02*
X56195000Y-78000000D01*
X56795000Y-78000000D02*
X58445000Y-78000000D01*
X59045000Y-78000000D02*
X60695000Y-78000000D01*
X61295000Y-78000000D02*
X62945000Y-78000000D01*
X63545000Y-78000000D02*
X65195000Y-78000000D01*
X65795000Y-78000000D02*
X67445000Y-78000000D01*
X68045000Y-78000000D02*
X69695000Y-78000000D01*
X70295000Y-78000000D02*
X71945000Y-78000000D01*
X66665350Y-65911033D02*
X66665350Y-65211033D01*
X66665350Y-65211033D02*
X66832017Y-65211033D01*
X66832017Y-65211033D02*
X66932017Y-65244366D01*
X66932017Y-65244366D02*
X66998684Y-65311033D01*
X66998684Y-65311033D02*
X67032017Y-65377700D01*
X67032017Y-65377700D02*
X67065350Y-65511033D01*
X67065350Y-65511033D02*
X67065350Y-65611033D01*
X67065350Y-65611033D02*
X67032017Y-65744366D01*
X67032017Y-65744366D02*
X66998684Y-65811033D01*
X66998684Y-65811033D02*
X66932017Y-65877700D01*
X66932017Y-65877700D02*
X66832017Y-65911033D01*
X66832017Y-65911033D02*
X66665350Y-65911033D01*
X67365350Y-65911033D02*
X67365350Y-65444366D01*
X67365350Y-65211033D02*
X67332017Y-65244366D01*
X67332017Y-65244366D02*
X67365350Y-65277700D01*
X67365350Y-65277700D02*
X67398684Y-65244366D01*
X67398684Y-65244366D02*
X67365350Y-65211033D01*
X67365350Y-65211033D02*
X67365350Y-65277700D01*
X67665350Y-65877700D02*
X67732017Y-65911033D01*
X67732017Y-65911033D02*
X67865350Y-65911033D01*
X67865350Y-65911033D02*
X67932017Y-65877700D01*
X67932017Y-65877700D02*
X67965350Y-65811033D01*
X67965350Y-65811033D02*
X67965350Y-65777700D01*
X67965350Y-65777700D02*
X67932017Y-65711033D01*
X67932017Y-65711033D02*
X67865350Y-65677700D01*
X67865350Y-65677700D02*
X67765350Y-65677700D01*
X67765350Y-65677700D02*
X67698683Y-65644366D01*
X67698683Y-65644366D02*
X67665350Y-65577700D01*
X67665350Y-65577700D02*
X67665350Y-65544366D01*
X67665350Y-65544366D02*
X67698683Y-65477700D01*
X67698683Y-65477700D02*
X67765350Y-65444366D01*
X67765350Y-65444366D02*
X67865350Y-65444366D01*
X67865350Y-65444366D02*
X67932017Y-65477700D01*
X68565350Y-65877700D02*
X68498684Y-65911033D01*
X68498684Y-65911033D02*
X68365350Y-65911033D01*
X68365350Y-65911033D02*
X68298684Y-65877700D01*
X68298684Y-65877700D02*
X68265350Y-65844366D01*
X68265350Y-65844366D02*
X68232017Y-65777700D01*
X68232017Y-65777700D02*
X68232017Y-65577700D01*
X68232017Y-65577700D02*
X68265350Y-65511033D01*
X68265350Y-65511033D02*
X68298684Y-65477700D01*
X68298684Y-65477700D02*
X68365350Y-65444366D01*
X68365350Y-65444366D02*
X68498684Y-65444366D01*
X68498684Y-65444366D02*
X68565350Y-65477700D01*
X68865350Y-65911033D02*
X68865350Y-65211033D01*
X69165350Y-65911033D02*
X69165350Y-65544366D01*
X69165350Y-65544366D02*
X69132017Y-65477700D01*
X69132017Y-65477700D02*
X69065350Y-65444366D01*
X69065350Y-65444366D02*
X68965350Y-65444366D01*
X68965350Y-65444366D02*
X68898684Y-65477700D01*
X68898684Y-65477700D02*
X68865350Y-65511033D01*
X69798683Y-65911033D02*
X69798683Y-65544366D01*
X69798683Y-65544366D02*
X69765350Y-65477700D01*
X69765350Y-65477700D02*
X69698683Y-65444366D01*
X69698683Y-65444366D02*
X69565350Y-65444366D01*
X69565350Y-65444366D02*
X69498683Y-65477700D01*
X69798683Y-65877700D02*
X69732017Y-65911033D01*
X69732017Y-65911033D02*
X69565350Y-65911033D01*
X69565350Y-65911033D02*
X69498683Y-65877700D01*
X69498683Y-65877700D02*
X69465350Y-65811033D01*
X69465350Y-65811033D02*
X69465350Y-65744366D01*
X69465350Y-65744366D02*
X69498683Y-65677700D01*
X69498683Y-65677700D02*
X69565350Y-65644366D01*
X69565350Y-65644366D02*
X69732017Y-65644366D01*
X69732017Y-65644366D02*
X69798683Y-65611033D01*
X70132016Y-65911033D02*
X70132016Y-65444366D01*
X70132016Y-65577700D02*
X70165350Y-65511033D01*
X70165350Y-65511033D02*
X70198683Y-65477700D01*
X70198683Y-65477700D02*
X70265350Y-65444366D01*
X70265350Y-65444366D02*
X70332016Y-65444366D01*
X70865349Y-65444366D02*
X70865349Y-66011033D01*
X70865349Y-66011033D02*
X70832016Y-66077700D01*
X70832016Y-66077700D02*
X70798683Y-66111033D01*
X70798683Y-66111033D02*
X70732016Y-66144366D01*
X70732016Y-66144366D02*
X70632016Y-66144366D01*
X70632016Y-66144366D02*
X70565349Y-66111033D01*
X70865349Y-65877700D02*
X70798683Y-65911033D01*
X70798683Y-65911033D02*
X70665349Y-65911033D01*
X70665349Y-65911033D02*
X70598683Y-65877700D01*
X70598683Y-65877700D02*
X70565349Y-65844366D01*
X70565349Y-65844366D02*
X70532016Y-65777700D01*
X70532016Y-65777700D02*
X70532016Y-65577700D01*
X70532016Y-65577700D02*
X70565349Y-65511033D01*
X70565349Y-65511033D02*
X70598683Y-65477700D01*
X70598683Y-65477700D02*
X70665349Y-65444366D01*
X70665349Y-65444366D02*
X70798683Y-65444366D01*
X70798683Y-65444366D02*
X70865349Y-65477700D01*
X71465349Y-65877700D02*
X71398682Y-65911033D01*
X71398682Y-65911033D02*
X71265349Y-65911033D01*
X71265349Y-65911033D02*
X71198682Y-65877700D01*
X71198682Y-65877700D02*
X71165349Y-65811033D01*
X71165349Y-65811033D02*
X71165349Y-65544366D01*
X71165349Y-65544366D02*
X71198682Y-65477700D01*
X71198682Y-65477700D02*
X71265349Y-65444366D01*
X71265349Y-65444366D02*
X71398682Y-65444366D01*
X71398682Y-65444366D02*
X71465349Y-65477700D01*
X71465349Y-65477700D02*
X71498682Y-65544366D01*
X71498682Y-65544366D02*
X71498682Y-65611033D01*
X71498682Y-65611033D02*
X71165349Y-65677700D01*
X66632017Y-67004700D02*
X66698684Y-67038033D01*
X66698684Y-67038033D02*
X66832017Y-67038033D01*
X66832017Y-67038033D02*
X66898684Y-67004700D01*
X66898684Y-67004700D02*
X66932017Y-66938033D01*
X66932017Y-66938033D02*
X66932017Y-66904700D01*
X66932017Y-66904700D02*
X66898684Y-66838033D01*
X66898684Y-66838033D02*
X66832017Y-66804700D01*
X66832017Y-66804700D02*
X66732017Y-66804700D01*
X66732017Y-66804700D02*
X66665350Y-66771366D01*
X66665350Y-66771366D02*
X66632017Y-66704700D01*
X66632017Y-66704700D02*
X66632017Y-66671366D01*
X66632017Y-66671366D02*
X66665350Y-66604700D01*
X66665350Y-66604700D02*
X66732017Y-66571366D01*
X66732017Y-66571366D02*
X66832017Y-66571366D01*
X66832017Y-66571366D02*
X66898684Y-66604700D01*
X67498684Y-67004700D02*
X67432017Y-67038033D01*
X67432017Y-67038033D02*
X67298684Y-67038033D01*
X67298684Y-67038033D02*
X67232017Y-67004700D01*
X67232017Y-67004700D02*
X67198684Y-66938033D01*
X67198684Y-66938033D02*
X67198684Y-66671366D01*
X67198684Y-66671366D02*
X67232017Y-66604700D01*
X67232017Y-66604700D02*
X67298684Y-66571366D01*
X67298684Y-66571366D02*
X67432017Y-66571366D01*
X67432017Y-66571366D02*
X67498684Y-66604700D01*
X67498684Y-66604700D02*
X67532017Y-66671366D01*
X67532017Y-66671366D02*
X67532017Y-66738033D01*
X67532017Y-66738033D02*
X67198684Y-66804700D01*
X67932017Y-67038033D02*
X67865351Y-67004700D01*
X67865351Y-67004700D02*
X67832017Y-66938033D01*
X67832017Y-66938033D02*
X67832017Y-66338033D01*
X68465351Y-67004700D02*
X68398684Y-67038033D01*
X68398684Y-67038033D02*
X68265351Y-67038033D01*
X68265351Y-67038033D02*
X68198684Y-67004700D01*
X68198684Y-67004700D02*
X68165351Y-66938033D01*
X68165351Y-66938033D02*
X68165351Y-66671366D01*
X68165351Y-66671366D02*
X68198684Y-66604700D01*
X68198684Y-66604700D02*
X68265351Y-66571366D01*
X68265351Y-66571366D02*
X68398684Y-66571366D01*
X68398684Y-66571366D02*
X68465351Y-66604700D01*
X68465351Y-66604700D02*
X68498684Y-66671366D01*
X68498684Y-66671366D02*
X68498684Y-66738033D01*
X68498684Y-66738033D02*
X68165351Y-66804700D01*
X69098684Y-67004700D02*
X69032018Y-67038033D01*
X69032018Y-67038033D02*
X68898684Y-67038033D01*
X68898684Y-67038033D02*
X68832018Y-67004700D01*
X68832018Y-67004700D02*
X68798684Y-66971366D01*
X68798684Y-66971366D02*
X68765351Y-66904700D01*
X68765351Y-66904700D02*
X68765351Y-66704700D01*
X68765351Y-66704700D02*
X68798684Y-66638033D01*
X68798684Y-66638033D02*
X68832018Y-66604700D01*
X68832018Y-66604700D02*
X68898684Y-66571366D01*
X68898684Y-66571366D02*
X69032018Y-66571366D01*
X69032018Y-66571366D02*
X69098684Y-66604700D01*
X69298684Y-66571366D02*
X69565351Y-66571366D01*
X69398684Y-66338033D02*
X69398684Y-66938033D01*
X69398684Y-66938033D02*
X69432018Y-67004700D01*
X69432018Y-67004700D02*
X69498684Y-67038033D01*
X69498684Y-67038033D02*
X69565351Y-67038033D01*
X53582254Y-74129819D02*
X53582254Y-73129819D01*
X53582254Y-73129819D02*
X53963206Y-73129819D01*
X53963206Y-73129819D02*
X54058444Y-73177438D01*
X54058444Y-73177438D02*
X54106063Y-73225057D01*
X54106063Y-73225057D02*
X54153682Y-73320295D01*
X54153682Y-73320295D02*
X54153682Y-73463152D01*
X54153682Y-73463152D02*
X54106063Y-73558390D01*
X54106063Y-73558390D02*
X54058444Y-73606009D01*
X54058444Y-73606009D02*
X53963206Y-73653628D01*
X53963206Y-73653628D02*
X53582254Y-73653628D01*
X55010825Y-73463152D02*
X55010825Y-74129819D01*
X54582254Y-73463152D02*
X54582254Y-73986961D01*
X54582254Y-73986961D02*
X54629873Y-74082200D01*
X54629873Y-74082200D02*
X54725111Y-74129819D01*
X54725111Y-74129819D02*
X54867968Y-74129819D01*
X54867968Y-74129819D02*
X54963206Y-74082200D01*
X54963206Y-74082200D02*
X55010825Y-74034580D01*
X55344159Y-73463152D02*
X55725111Y-73463152D01*
X55487016Y-73129819D02*
X55487016Y-73986961D01*
X55487016Y-73986961D02*
X55534635Y-74082200D01*
X55534635Y-74082200D02*
X55629873Y-74129819D01*
X55629873Y-74129819D02*
X55725111Y-74129819D01*
X56820350Y-74129819D02*
X56820350Y-73463152D01*
X56820350Y-73558390D02*
X56867969Y-73510771D01*
X56867969Y-73510771D02*
X56963207Y-73463152D01*
X56963207Y-73463152D02*
X57106064Y-73463152D01*
X57106064Y-73463152D02*
X57201302Y-73510771D01*
X57201302Y-73510771D02*
X57248921Y-73606009D01*
X57248921Y-73606009D02*
X57248921Y-74129819D01*
X57248921Y-73606009D02*
X57296540Y-73510771D01*
X57296540Y-73510771D02*
X57391778Y-73463152D01*
X57391778Y-73463152D02*
X57534635Y-73463152D01*
X57534635Y-73463152D02*
X57629874Y-73510771D01*
X57629874Y-73510771D02*
X57677493Y-73606009D01*
X57677493Y-73606009D02*
X57677493Y-74129819D01*
X58534635Y-74082200D02*
X58439397Y-74129819D01*
X58439397Y-74129819D02*
X58248921Y-74129819D01*
X58248921Y-74129819D02*
X58153683Y-74082200D01*
X58153683Y-74082200D02*
X58106064Y-73986961D01*
X58106064Y-73986961D02*
X58106064Y-73606009D01*
X58106064Y-73606009D02*
X58153683Y-73510771D01*
X58153683Y-73510771D02*
X58248921Y-73463152D01*
X58248921Y-73463152D02*
X58439397Y-73463152D01*
X58439397Y-73463152D02*
X58534635Y-73510771D01*
X58534635Y-73510771D02*
X58582254Y-73606009D01*
X58582254Y-73606009D02*
X58582254Y-73701247D01*
X58582254Y-73701247D02*
X58106064Y-73796485D01*
X59772731Y-74129819D02*
X59772731Y-73463152D01*
X59772731Y-73129819D02*
X59725112Y-73177438D01*
X59725112Y-73177438D02*
X59772731Y-73225057D01*
X59772731Y-73225057D02*
X59820350Y-73177438D01*
X59820350Y-73177438D02*
X59772731Y-73129819D01*
X59772731Y-73129819D02*
X59772731Y-73225057D01*
X60248921Y-73463152D02*
X60248921Y-74129819D01*
X60248921Y-73558390D02*
X60296540Y-73510771D01*
X60296540Y-73510771D02*
X60391778Y-73463152D01*
X60391778Y-73463152D02*
X60534635Y-73463152D01*
X60534635Y-73463152D02*
X60629873Y-73510771D01*
X60629873Y-73510771D02*
X60677492Y-73606009D01*
X60677492Y-73606009D02*
X60677492Y-74129819D01*
X61010826Y-73463152D02*
X61391778Y-73463152D01*
X61153683Y-73129819D02*
X61153683Y-73986961D01*
X61153683Y-73986961D02*
X61201302Y-74082200D01*
X61201302Y-74082200D02*
X61296540Y-74129819D01*
X61296540Y-74129819D02*
X61391778Y-74129819D01*
X61867969Y-74129819D02*
X61772731Y-74082200D01*
X61772731Y-74082200D02*
X61725112Y-74034580D01*
X61725112Y-74034580D02*
X61677493Y-73939342D01*
X61677493Y-73939342D02*
X61677493Y-73653628D01*
X61677493Y-73653628D02*
X61725112Y-73558390D01*
X61725112Y-73558390D02*
X61772731Y-73510771D01*
X61772731Y-73510771D02*
X61867969Y-73463152D01*
X61867969Y-73463152D02*
X62010826Y-73463152D01*
X62010826Y-73463152D02*
X62106064Y-73510771D01*
X62106064Y-73510771D02*
X62153683Y-73558390D01*
X62153683Y-73558390D02*
X62201302Y-73653628D01*
X62201302Y-73653628D02*
X62201302Y-73939342D01*
X62201302Y-73939342D02*
X62153683Y-74034580D01*
X62153683Y-74034580D02*
X62106064Y-74082200D01*
X62106064Y-74082200D02*
X62010826Y-74129819D01*
X62010826Y-74129819D02*
X61867969Y-74129819D01*
X63248922Y-73463152D02*
X63629874Y-73463152D01*
X63391779Y-73129819D02*
X63391779Y-73986961D01*
X63391779Y-73986961D02*
X63439398Y-74082200D01*
X63439398Y-74082200D02*
X63534636Y-74129819D01*
X63534636Y-74129819D02*
X63629874Y-74129819D01*
X63963208Y-74129819D02*
X63963208Y-73129819D01*
X64391779Y-74129819D02*
X64391779Y-73606009D01*
X64391779Y-73606009D02*
X64344160Y-73510771D01*
X64344160Y-73510771D02*
X64248922Y-73463152D01*
X64248922Y-73463152D02*
X64106065Y-73463152D01*
X64106065Y-73463152D02*
X64010827Y-73510771D01*
X64010827Y-73510771D02*
X63963208Y-73558390D01*
X65248922Y-74082200D02*
X65153684Y-74129819D01*
X65153684Y-74129819D02*
X64963208Y-74129819D01*
X64963208Y-74129819D02*
X64867970Y-74082200D01*
X64867970Y-74082200D02*
X64820351Y-73986961D01*
X64820351Y-73986961D02*
X64820351Y-73606009D01*
X64820351Y-73606009D02*
X64867970Y-73510771D01*
X64867970Y-73510771D02*
X64963208Y-73463152D01*
X64963208Y-73463152D02*
X65153684Y-73463152D01*
X65153684Y-73463152D02*
X65248922Y-73510771D01*
X65248922Y-73510771D02*
X65296541Y-73606009D01*
X65296541Y-73606009D02*
X65296541Y-73701247D01*
X65296541Y-73701247D02*
X64820351Y-73796485D01*
X66439399Y-74082200D02*
X66534637Y-74129819D01*
X66534637Y-74129819D02*
X66725113Y-74129819D01*
X66725113Y-74129819D02*
X66820351Y-74082200D01*
X66820351Y-74082200D02*
X66867970Y-73986961D01*
X66867970Y-73986961D02*
X66867970Y-73939342D01*
X66867970Y-73939342D02*
X66820351Y-73844104D01*
X66820351Y-73844104D02*
X66725113Y-73796485D01*
X66725113Y-73796485D02*
X66582256Y-73796485D01*
X66582256Y-73796485D02*
X66487018Y-73748866D01*
X66487018Y-73748866D02*
X66439399Y-73653628D01*
X66439399Y-73653628D02*
X66439399Y-73606009D01*
X66439399Y-73606009D02*
X66487018Y-73510771D01*
X66487018Y-73510771D02*
X66582256Y-73463152D01*
X66582256Y-73463152D02*
X66725113Y-73463152D01*
X66725113Y-73463152D02*
X66820351Y-73510771D01*
X67439399Y-74129819D02*
X67344161Y-74082200D01*
X67344161Y-74082200D02*
X67296542Y-74034580D01*
X67296542Y-74034580D02*
X67248923Y-73939342D01*
X67248923Y-73939342D02*
X67248923Y-73653628D01*
X67248923Y-73653628D02*
X67296542Y-73558390D01*
X67296542Y-73558390D02*
X67344161Y-73510771D01*
X67344161Y-73510771D02*
X67439399Y-73463152D01*
X67439399Y-73463152D02*
X67582256Y-73463152D01*
X67582256Y-73463152D02*
X67677494Y-73510771D01*
X67677494Y-73510771D02*
X67725113Y-73558390D01*
X67725113Y-73558390D02*
X67772732Y-73653628D01*
X67772732Y-73653628D02*
X67772732Y-73939342D01*
X67772732Y-73939342D02*
X67725113Y-74034580D01*
X67725113Y-74034580D02*
X67677494Y-74082200D01*
X67677494Y-74082200D02*
X67582256Y-74129819D01*
X67582256Y-74129819D02*
X67439399Y-74129819D01*
X68201304Y-74129819D02*
X68201304Y-73463152D01*
X68201304Y-73129819D02*
X68153685Y-73177438D01*
X68153685Y-73177438D02*
X68201304Y-73225057D01*
X68201304Y-73225057D02*
X68248923Y-73177438D01*
X68248923Y-73177438D02*
X68201304Y-73129819D01*
X68201304Y-73129819D02*
X68201304Y-73225057D01*
X68820351Y-74129819D02*
X68725113Y-74082200D01*
X68725113Y-74082200D02*
X68677494Y-73986961D01*
X68677494Y-73986961D02*
X68677494Y-73129819D01*
X53046333Y-53540819D02*
X52713000Y-53064628D01*
X52474905Y-53540819D02*
X52474905Y-52540819D01*
X52474905Y-52540819D02*
X52855857Y-52540819D01*
X52855857Y-52540819D02*
X52951095Y-52588438D01*
X52951095Y-52588438D02*
X52998714Y-52636057D01*
X52998714Y-52636057D02*
X53046333Y-52731295D01*
X53046333Y-52731295D02*
X53046333Y-52874152D01*
X53046333Y-52874152D02*
X52998714Y-52969390D01*
X52998714Y-52969390D02*
X52951095Y-53017009D01*
X52951095Y-53017009D02*
X52855857Y-53064628D01*
X52855857Y-53064628D02*
X52474905Y-53064628D01*
X53617762Y-52969390D02*
X53522524Y-52921771D01*
X53522524Y-52921771D02*
X53474905Y-52874152D01*
X53474905Y-52874152D02*
X53427286Y-52778914D01*
X53427286Y-52778914D02*
X53427286Y-52731295D01*
X53427286Y-52731295D02*
X53474905Y-52636057D01*
X53474905Y-52636057D02*
X53522524Y-52588438D01*
X53522524Y-52588438D02*
X53617762Y-52540819D01*
X53617762Y-52540819D02*
X53808238Y-52540819D01*
X53808238Y-52540819D02*
X53903476Y-52588438D01*
X53903476Y-52588438D02*
X53951095Y-52636057D01*
X53951095Y-52636057D02*
X53998714Y-52731295D01*
X53998714Y-52731295D02*
X53998714Y-52778914D01*
X53998714Y-52778914D02*
X53951095Y-52874152D01*
X53951095Y-52874152D02*
X53903476Y-52921771D01*
X53903476Y-52921771D02*
X53808238Y-52969390D01*
X53808238Y-52969390D02*
X53617762Y-52969390D01*
X53617762Y-52969390D02*
X53522524Y-53017009D01*
X53522524Y-53017009D02*
X53474905Y-53064628D01*
X53474905Y-53064628D02*
X53427286Y-53159866D01*
X53427286Y-53159866D02*
X53427286Y-53350342D01*
X53427286Y-53350342D02*
X53474905Y-53445580D01*
X53474905Y-53445580D02*
X53522524Y-53493200D01*
X53522524Y-53493200D02*
X53617762Y-53540819D01*
X53617762Y-53540819D02*
X53808238Y-53540819D01*
X53808238Y-53540819D02*
X53903476Y-53493200D01*
X53903476Y-53493200D02*
X53951095Y-53445580D01*
X53951095Y-53445580D02*
X53998714Y-53350342D01*
X53998714Y-53350342D02*
X53998714Y-53159866D01*
X53998714Y-53159866D02*
X53951095Y-53064628D01*
X53951095Y-53064628D02*
X53903476Y-53017009D01*
X53903476Y-53017009D02*
X53808238Y-52969390D01*
X48494819Y-45956594D02*
X47494819Y-45956594D01*
X47494819Y-45956594D02*
X47494819Y-45718499D01*
X47494819Y-45718499D02*
X47542438Y-45575642D01*
X47542438Y-45575642D02*
X47637676Y-45480404D01*
X47637676Y-45480404D02*
X47732914Y-45432785D01*
X47732914Y-45432785D02*
X47923390Y-45385166D01*
X47923390Y-45385166D02*
X48066247Y-45385166D01*
X48066247Y-45385166D02*
X48256723Y-45432785D01*
X48256723Y-45432785D02*
X48351961Y-45480404D01*
X48351961Y-45480404D02*
X48447200Y-45575642D01*
X48447200Y-45575642D02*
X48494819Y-45718499D01*
X48494819Y-45718499D02*
X48494819Y-45956594D01*
X48494819Y-44432785D02*
X48494819Y-45004213D01*
X48494819Y-44718499D02*
X47494819Y-44718499D01*
X47494819Y-44718499D02*
X47637676Y-44813737D01*
X47637676Y-44813737D02*
X47732914Y-44908975D01*
X47732914Y-44908975D02*
X47780533Y-45004213D01*
X71604819Y-44714833D02*
X72319104Y-44714833D01*
X72319104Y-44714833D02*
X72461961Y-44762452D01*
X72461961Y-44762452D02*
X72557200Y-44857690D01*
X72557200Y-44857690D02*
X72604819Y-45000547D01*
X72604819Y-45000547D02*
X72604819Y-45095785D01*
X71700057Y-44286261D02*
X71652438Y-44238642D01*
X71652438Y-44238642D02*
X71604819Y-44143404D01*
X71604819Y-44143404D02*
X71604819Y-43905309D01*
X71604819Y-43905309D02*
X71652438Y-43810071D01*
X71652438Y-43810071D02*
X71700057Y-43762452D01*
X71700057Y-43762452D02*
X71795295Y-43714833D01*
X71795295Y-43714833D02*
X71890533Y-43714833D01*
X71890533Y-43714833D02*
X72033390Y-43762452D01*
X72033390Y-43762452D02*
X72604819Y-44333880D01*
X72604819Y-44333880D02*
X72604819Y-43714833D01*
X73713333Y-54074080D02*
X73665714Y-54121700D01*
X73665714Y-54121700D02*
X73522857Y-54169319D01*
X73522857Y-54169319D02*
X73427619Y-54169319D01*
X73427619Y-54169319D02*
X73284762Y-54121700D01*
X73284762Y-54121700D02*
X73189524Y-54026461D01*
X73189524Y-54026461D02*
X73141905Y-53931223D01*
X73141905Y-53931223D02*
X73094286Y-53740747D01*
X73094286Y-53740747D02*
X73094286Y-53597890D01*
X73094286Y-53597890D02*
X73141905Y-53407414D01*
X73141905Y-53407414D02*
X73189524Y-53312176D01*
X73189524Y-53312176D02*
X73284762Y-53216938D01*
X73284762Y-53216938D02*
X73427619Y-53169319D01*
X73427619Y-53169319D02*
X73522857Y-53169319D01*
X73522857Y-53169319D02*
X73665714Y-53216938D01*
X73665714Y-53216938D02*
X73713333Y-53264557D01*
X74665714Y-54169319D02*
X74094286Y-54169319D01*
X74380000Y-54169319D02*
X74380000Y-53169319D01*
X74380000Y-53169319D02*
X74284762Y-53312176D01*
X74284762Y-53312176D02*
X74189524Y-53407414D01*
X74189524Y-53407414D02*
X74094286Y-53455033D01*
X48554819Y-41632094D02*
X47554819Y-41632094D01*
X47554819Y-41632094D02*
X47554819Y-41393999D01*
X47554819Y-41393999D02*
X47602438Y-41251142D01*
X47602438Y-41251142D02*
X47697676Y-41155904D01*
X47697676Y-41155904D02*
X47792914Y-41108285D01*
X47792914Y-41108285D02*
X47983390Y-41060666D01*
X47983390Y-41060666D02*
X48126247Y-41060666D01*
X48126247Y-41060666D02*
X48316723Y-41108285D01*
X48316723Y-41108285D02*
X48411961Y-41155904D01*
X48411961Y-41155904D02*
X48507200Y-41251142D01*
X48507200Y-41251142D02*
X48554819Y-41393999D01*
X48554819Y-41393999D02*
X48554819Y-41632094D01*
X47650057Y-40679713D02*
X47602438Y-40632094D01*
X47602438Y-40632094D02*
X47554819Y-40536856D01*
X47554819Y-40536856D02*
X47554819Y-40298761D01*
X47554819Y-40298761D02*
X47602438Y-40203523D01*
X47602438Y-40203523D02*
X47650057Y-40155904D01*
X47650057Y-40155904D02*
X47745295Y-40108285D01*
X47745295Y-40108285D02*
X47840533Y-40108285D01*
X47840533Y-40108285D02*
X47983390Y-40155904D01*
X47983390Y-40155904D02*
X48554819Y-40727332D01*
X48554819Y-40727332D02*
X48554819Y-40108285D01*
X59094819Y-54389166D02*
X58618628Y-54722499D01*
X59094819Y-54960594D02*
X58094819Y-54960594D01*
X58094819Y-54960594D02*
X58094819Y-54579642D01*
X58094819Y-54579642D02*
X58142438Y-54484404D01*
X58142438Y-54484404D02*
X58190057Y-54436785D01*
X58190057Y-54436785D02*
X58285295Y-54389166D01*
X58285295Y-54389166D02*
X58428152Y-54389166D01*
X58428152Y-54389166D02*
X58523390Y-54436785D01*
X58523390Y-54436785D02*
X58571009Y-54484404D01*
X58571009Y-54484404D02*
X58618628Y-54579642D01*
X58618628Y-54579642D02*
X58618628Y-54960594D01*
X58094819Y-53532023D02*
X58094819Y-53722499D01*
X58094819Y-53722499D02*
X58142438Y-53817737D01*
X58142438Y-53817737D02*
X58190057Y-53865356D01*
X58190057Y-53865356D02*
X58332914Y-53960594D01*
X58332914Y-53960594D02*
X58523390Y-54008213D01*
X58523390Y-54008213D02*
X58904342Y-54008213D01*
X58904342Y-54008213D02*
X58999580Y-53960594D01*
X58999580Y-53960594D02*
X59047200Y-53912975D01*
X59047200Y-53912975D02*
X59094819Y-53817737D01*
X59094819Y-53817737D02*
X59094819Y-53627261D01*
X59094819Y-53627261D02*
X59047200Y-53532023D01*
X59047200Y-53532023D02*
X58999580Y-53484404D01*
X58999580Y-53484404D02*
X58904342Y-53436785D01*
X58904342Y-53436785D02*
X58666247Y-53436785D01*
X58666247Y-53436785D02*
X58571009Y-53484404D01*
X58571009Y-53484404D02*
X58523390Y-53532023D01*
X58523390Y-53532023D02*
X58475771Y-53627261D01*
X58475771Y-53627261D02*
X58475771Y-53817737D01*
X58475771Y-53817737D02*
X58523390Y-53912975D01*
X58523390Y-53912975D02*
X58571009Y-53960594D01*
X58571009Y-53960594D02*
X58666247Y-54008213D01*
X73314819Y-36458166D02*
X72838628Y-36791499D01*
X73314819Y-37029594D02*
X72314819Y-37029594D01*
X72314819Y-37029594D02*
X72314819Y-36648642D01*
X72314819Y-36648642D02*
X72362438Y-36553404D01*
X72362438Y-36553404D02*
X72410057Y-36505785D01*
X72410057Y-36505785D02*
X72505295Y-36458166D01*
X72505295Y-36458166D02*
X72648152Y-36458166D01*
X72648152Y-36458166D02*
X72743390Y-36505785D01*
X72743390Y-36505785D02*
X72791009Y-36553404D01*
X72791009Y-36553404D02*
X72838628Y-36648642D01*
X72838628Y-36648642D02*
X72838628Y-37029594D01*
X72410057Y-36077213D02*
X72362438Y-36029594D01*
X72362438Y-36029594D02*
X72314819Y-35934356D01*
X72314819Y-35934356D02*
X72314819Y-35696261D01*
X72314819Y-35696261D02*
X72362438Y-35601023D01*
X72362438Y-35601023D02*
X72410057Y-35553404D01*
X72410057Y-35553404D02*
X72505295Y-35505785D01*
X72505295Y-35505785D02*
X72600533Y-35505785D01*
X72600533Y-35505785D02*
X72743390Y-35553404D01*
X72743390Y-35553404D02*
X73314819Y-36124832D01*
X73314819Y-36124832D02*
X73314819Y-35505785D01*
X61507045Y-58642023D02*
X62154664Y-58642023D01*
X62154664Y-58642023D02*
X62230854Y-58603928D01*
X62230854Y-58603928D02*
X62268950Y-58565833D01*
X62268950Y-58565833D02*
X62307045Y-58489642D01*
X62307045Y-58489642D02*
X62307045Y-58337261D01*
X62307045Y-58337261D02*
X62268950Y-58261071D01*
X62268950Y-58261071D02*
X62230854Y-58222976D01*
X62230854Y-58222976D02*
X62154664Y-58184880D01*
X62154664Y-58184880D02*
X61507045Y-58184880D01*
X61583235Y-57842024D02*
X61545140Y-57803928D01*
X61545140Y-57803928D02*
X61507045Y-57727738D01*
X61507045Y-57727738D02*
X61507045Y-57537262D01*
X61507045Y-57537262D02*
X61545140Y-57461071D01*
X61545140Y-57461071D02*
X61583235Y-57422976D01*
X61583235Y-57422976D02*
X61659426Y-57384881D01*
X61659426Y-57384881D02*
X61735616Y-57384881D01*
X61735616Y-57384881D02*
X61849902Y-57422976D01*
X61849902Y-57422976D02*
X62307045Y-57880119D01*
X62307045Y-57880119D02*
X62307045Y-57384881D01*
D12*
X60773714Y-53696717D02*
X60773714Y-54668146D01*
X60773714Y-54668146D02*
X60830857Y-54782432D01*
X60830857Y-54782432D02*
X60888000Y-54839575D01*
X60888000Y-54839575D02*
X61002285Y-54896717D01*
X61002285Y-54896717D02*
X61230857Y-54896717D01*
X61230857Y-54896717D02*
X61345142Y-54839575D01*
X61345142Y-54839575D02*
X61402285Y-54782432D01*
X61402285Y-54782432D02*
X61459428Y-54668146D01*
X61459428Y-54668146D02*
X61459428Y-53696717D01*
X62659428Y-54896717D02*
X61973714Y-54896717D01*
X62316571Y-54896717D02*
X62316571Y-53696717D01*
X62316571Y-53696717D02*
X62202285Y-53868146D01*
X62202285Y-53868146D02*
X62088000Y-53982432D01*
X62088000Y-53982432D02*
X61973714Y-54039575D01*
X57799047Y-34516003D02*
X57799047Y-34992194D01*
X57465714Y-33992194D02*
X57799047Y-34516003D01*
X57799047Y-34516003D02*
X58132380Y-33992194D01*
X58751428Y-33992194D02*
X58751428Y-34706479D01*
X58751428Y-34706479D02*
X58703809Y-34849336D01*
X58703809Y-34849336D02*
X58608571Y-34944575D01*
X58608571Y-34944575D02*
X58465714Y-34992194D01*
X58465714Y-34992194D02*
X58370476Y-34992194D01*
X59227619Y-34611241D02*
X59989524Y-34611241D01*
X60989523Y-34992194D02*
X60418095Y-34992194D01*
X60703809Y-34992194D02*
X60703809Y-33992194D01*
X60703809Y-33992194D02*
X60608571Y-34135051D01*
X60608571Y-34135051D02*
X60513333Y-34230289D01*
X60513333Y-34230289D02*
X60418095Y-34277908D01*
X61846666Y-34325527D02*
X61846666Y-34992194D01*
X61608571Y-33944575D02*
X61370476Y-34658860D01*
X61370476Y-34658860D02*
X61989523Y-34658860D01*
X62560952Y-33992194D02*
X62656190Y-33992194D01*
X62656190Y-33992194D02*
X62751428Y-34039813D01*
X62751428Y-34039813D02*
X62799047Y-34087432D01*
X62799047Y-34087432D02*
X62846666Y-34182670D01*
X62846666Y-34182670D02*
X62894285Y-34373146D01*
X62894285Y-34373146D02*
X62894285Y-34611241D01*
X62894285Y-34611241D02*
X62846666Y-34801717D01*
X62846666Y-34801717D02*
X62799047Y-34896955D01*
X62799047Y-34896955D02*
X62751428Y-34944575D01*
X62751428Y-34944575D02*
X62656190Y-34992194D01*
X62656190Y-34992194D02*
X62560952Y-34992194D01*
X62560952Y-34992194D02*
X62465714Y-34944575D01*
X62465714Y-34944575D02*
X62418095Y-34896955D01*
X62418095Y-34896955D02*
X62370476Y-34801717D01*
X62370476Y-34801717D02*
X62322857Y-34611241D01*
X62322857Y-34611241D02*
X62322857Y-34373146D01*
X62322857Y-34373146D02*
X62370476Y-34182670D01*
X62370476Y-34182670D02*
X62418095Y-34087432D01*
X62418095Y-34087432D02*
X62465714Y-34039813D01*
X62465714Y-34039813D02*
X62560952Y-33992194D01*
X63846666Y-34992194D02*
X63275238Y-34992194D01*
X63560952Y-34992194D02*
X63560952Y-33992194D01*
X63560952Y-33992194D02*
X63465714Y-34135051D01*
X63465714Y-34135051D02*
X63370476Y-34230289D01*
X63370476Y-34230289D02*
X63275238Y-34277908D01*
X64751428Y-33992194D02*
X64275238Y-33992194D01*
X64275238Y-33992194D02*
X64227619Y-34468384D01*
X64227619Y-34468384D02*
X64275238Y-34420765D01*
X64275238Y-34420765D02*
X64370476Y-34373146D01*
X64370476Y-34373146D02*
X64608571Y-34373146D01*
X64608571Y-34373146D02*
X64703809Y-34420765D01*
X64703809Y-34420765D02*
X64751428Y-34468384D01*
X64751428Y-34468384D02*
X64799047Y-34563622D01*
X64799047Y-34563622D02*
X64799047Y-34801717D01*
X64799047Y-34801717D02*
X64751428Y-34896955D01*
X64751428Y-34896955D02*
X64703809Y-34944575D01*
X64703809Y-34944575D02*
X64608571Y-34992194D01*
X64608571Y-34992194D02*
X64370476Y-34992194D01*
X64370476Y-34992194D02*
X64275238Y-34944575D01*
X64275238Y-34944575D02*
X64227619Y-34896955D01*
D13*
X70179122Y-38935894D02*
X69779122Y-38935894D01*
X69979122Y-38935894D02*
X69979122Y-38235894D01*
X69979122Y-38235894D02*
X69912455Y-38335894D01*
X69912455Y-38335894D02*
X69845789Y-38402561D01*
X69845789Y-38402561D02*
X69779122Y-38435894D01*
X70579122Y-38535894D02*
X70512456Y-38502561D01*
X70512456Y-38502561D02*
X70479122Y-38469227D01*
X70479122Y-38469227D02*
X70445789Y-38402561D01*
X70445789Y-38402561D02*
X70445789Y-38369227D01*
X70445789Y-38369227D02*
X70479122Y-38302561D01*
X70479122Y-38302561D02*
X70512456Y-38269227D01*
X70512456Y-38269227D02*
X70579122Y-38235894D01*
X70579122Y-38235894D02*
X70712456Y-38235894D01*
X70712456Y-38235894D02*
X70779122Y-38269227D01*
X70779122Y-38269227D02*
X70812456Y-38302561D01*
X70812456Y-38302561D02*
X70845789Y-38369227D01*
X70845789Y-38369227D02*
X70845789Y-38402561D01*
X70845789Y-38402561D02*
X70812456Y-38469227D01*
X70812456Y-38469227D02*
X70779122Y-38502561D01*
X70779122Y-38502561D02*
X70712456Y-38535894D01*
X70712456Y-38535894D02*
X70579122Y-38535894D01*
X70579122Y-38535894D02*
X70512456Y-38569227D01*
X70512456Y-38569227D02*
X70479122Y-38602561D01*
X70479122Y-38602561D02*
X70445789Y-38669227D01*
X70445789Y-38669227D02*
X70445789Y-38802561D01*
X70445789Y-38802561D02*
X70479122Y-38869227D01*
X70479122Y-38869227D02*
X70512456Y-38902561D01*
X70512456Y-38902561D02*
X70579122Y-38935894D01*
X70579122Y-38935894D02*
X70712456Y-38935894D01*
X70712456Y-38935894D02*
X70779122Y-38902561D01*
X70779122Y-38902561D02*
X70812456Y-38869227D01*
X70812456Y-38869227D02*
X70845789Y-38802561D01*
X70845789Y-38802561D02*
X70845789Y-38669227D01*
X70845789Y-38669227D02*
X70812456Y-38602561D01*
X70812456Y-38602561D02*
X70779122Y-38569227D01*
X70779122Y-38569227D02*
X70712456Y-38535894D01*
X51579122Y-40462560D02*
X51612455Y-40429226D01*
X51612455Y-40429226D02*
X51679122Y-40395893D01*
X51679122Y-40395893D02*
X51845789Y-40395893D01*
X51845789Y-40395893D02*
X51912455Y-40429226D01*
X51912455Y-40429226D02*
X51945789Y-40462560D01*
X51945789Y-40462560D02*
X51979122Y-40529226D01*
X51979122Y-40529226D02*
X51979122Y-40595893D01*
X51979122Y-40595893D02*
X51945789Y-40695893D01*
X51945789Y-40695893D02*
X51545789Y-41095893D01*
X51545789Y-41095893D02*
X51979122Y-41095893D01*
X52579122Y-40629226D02*
X52579122Y-41095893D01*
X52412456Y-40362560D02*
X52245789Y-40862560D01*
X52245789Y-40862560D02*
X52679122Y-40862560D01*
X70179122Y-45575894D02*
X69779122Y-45575894D01*
X69979122Y-45575894D02*
X69979122Y-44875894D01*
X69979122Y-44875894D02*
X69912455Y-44975894D01*
X69912455Y-44975894D02*
X69845789Y-45042561D01*
X69845789Y-45042561D02*
X69779122Y-45075894D01*
X70779122Y-45109227D02*
X70779122Y-45575894D01*
X70612456Y-44842561D02*
X70445789Y-45342561D01*
X70445789Y-45342561D02*
X70879122Y-45342561D01*
X51579122Y-38302560D02*
X51612455Y-38269226D01*
X51612455Y-38269226D02*
X51679122Y-38235893D01*
X51679122Y-38235893D02*
X51845789Y-38235893D01*
X51845789Y-38235893D02*
X51912455Y-38269226D01*
X51912455Y-38269226D02*
X51945789Y-38302560D01*
X51945789Y-38302560D02*
X51979122Y-38369226D01*
X51979122Y-38369226D02*
X51979122Y-38435893D01*
X51979122Y-38435893D02*
X51945789Y-38535893D01*
X51945789Y-38535893D02*
X51545789Y-38935893D01*
X51545789Y-38935893D02*
X51979122Y-38935893D01*
X52245789Y-38302560D02*
X52279122Y-38269226D01*
X52279122Y-38269226D02*
X52345789Y-38235893D01*
X52345789Y-38235893D02*
X52512456Y-38235893D01*
X52512456Y-38235893D02*
X52579122Y-38269226D01*
X52579122Y-38269226D02*
X52612456Y-38302560D01*
X52612456Y-38302560D02*
X52645789Y-38369226D01*
X52645789Y-38369226D02*
X52645789Y-38435893D01*
X52645789Y-38435893D02*
X52612456Y-38535893D01*
X52612456Y-38535893D02*
X52212456Y-38935893D01*
X52212456Y-38935893D02*
X52645789Y-38935893D01*
X58116403Y-52700971D02*
X58116403Y-52634304D01*
X58116403Y-52634304D02*
X58149736Y-52567637D01*
X58149736Y-52567637D02*
X58183070Y-52534304D01*
X58183070Y-52534304D02*
X58249736Y-52500971D01*
X58249736Y-52500971D02*
X58383070Y-52467637D01*
X58383070Y-52467637D02*
X58549736Y-52467637D01*
X58549736Y-52467637D02*
X58683070Y-52500971D01*
X58683070Y-52500971D02*
X58749736Y-52534304D01*
X58749736Y-52534304D02*
X58783070Y-52567637D01*
X58783070Y-52567637D02*
X58816403Y-52634304D01*
X58816403Y-52634304D02*
X58816403Y-52700971D01*
X58816403Y-52700971D02*
X58783070Y-52767637D01*
X58783070Y-52767637D02*
X58749736Y-52800971D01*
X58749736Y-52800971D02*
X58683070Y-52834304D01*
X58683070Y-52834304D02*
X58549736Y-52867637D01*
X58549736Y-52867637D02*
X58383070Y-52867637D01*
X58383070Y-52867637D02*
X58249736Y-52834304D01*
X58249736Y-52834304D02*
X58183070Y-52800971D01*
X58183070Y-52800971D02*
X58149736Y-52767637D01*
X58149736Y-52767637D02*
X58116403Y-52700971D01*
X58183070Y-52200970D02*
X58149736Y-52167637D01*
X58149736Y-52167637D02*
X58116403Y-52100970D01*
X58116403Y-52100970D02*
X58116403Y-51934304D01*
X58116403Y-51934304D02*
X58149736Y-51867637D01*
X58149736Y-51867637D02*
X58183070Y-51834304D01*
X58183070Y-51834304D02*
X58249736Y-51800970D01*
X58249736Y-51800970D02*
X58316403Y-51800970D01*
X58316403Y-51800970D02*
X58416403Y-51834304D01*
X58416403Y-51834304D02*
X58816403Y-52234304D01*
X58816403Y-52234304D02*
X58816403Y-51800970D01*
X63661853Y-52700971D02*
X63661853Y-52634304D01*
X63661853Y-52634304D02*
X63695186Y-52567637D01*
X63695186Y-52567637D02*
X63728520Y-52534304D01*
X63728520Y-52534304D02*
X63795186Y-52500971D01*
X63795186Y-52500971D02*
X63928520Y-52467637D01*
X63928520Y-52467637D02*
X64095186Y-52467637D01*
X64095186Y-52467637D02*
X64228520Y-52500971D01*
X64228520Y-52500971D02*
X64295186Y-52534304D01*
X64295186Y-52534304D02*
X64328520Y-52567637D01*
X64328520Y-52567637D02*
X64361853Y-52634304D01*
X64361853Y-52634304D02*
X64361853Y-52700971D01*
X64361853Y-52700971D02*
X64328520Y-52767637D01*
X64328520Y-52767637D02*
X64295186Y-52800971D01*
X64295186Y-52800971D02*
X64228520Y-52834304D01*
X64228520Y-52834304D02*
X64095186Y-52867637D01*
X64095186Y-52867637D02*
X63928520Y-52867637D01*
X63928520Y-52867637D02*
X63795186Y-52834304D01*
X63795186Y-52834304D02*
X63728520Y-52800971D01*
X63728520Y-52800971D02*
X63695186Y-52767637D01*
X63695186Y-52767637D02*
X63661853Y-52700971D01*
X63661853Y-52234304D02*
X63661853Y-51767637D01*
X63661853Y-51767637D02*
X64361853Y-52067637D01*
X57007313Y-52700971D02*
X57007313Y-52634304D01*
X57007313Y-52634304D02*
X57040646Y-52567637D01*
X57040646Y-52567637D02*
X57073980Y-52534304D01*
X57073980Y-52534304D02*
X57140646Y-52500971D01*
X57140646Y-52500971D02*
X57273980Y-52467637D01*
X57273980Y-52467637D02*
X57440646Y-52467637D01*
X57440646Y-52467637D02*
X57573980Y-52500971D01*
X57573980Y-52500971D02*
X57640646Y-52534304D01*
X57640646Y-52534304D02*
X57673980Y-52567637D01*
X57673980Y-52567637D02*
X57707313Y-52634304D01*
X57707313Y-52634304D02*
X57707313Y-52700971D01*
X57707313Y-52700971D02*
X57673980Y-52767637D01*
X57673980Y-52767637D02*
X57640646Y-52800971D01*
X57640646Y-52800971D02*
X57573980Y-52834304D01*
X57573980Y-52834304D02*
X57440646Y-52867637D01*
X57440646Y-52867637D02*
X57273980Y-52867637D01*
X57273980Y-52867637D02*
X57140646Y-52834304D01*
X57140646Y-52834304D02*
X57073980Y-52800971D01*
X57073980Y-52800971D02*
X57040646Y-52767637D01*
X57040646Y-52767637D02*
X57007313Y-52700971D01*
X57707313Y-51800970D02*
X57707313Y-52200970D01*
X57707313Y-52000970D02*
X57007313Y-52000970D01*
X57007313Y-52000970D02*
X57107313Y-52067637D01*
X57107313Y-52067637D02*
X57173980Y-52134304D01*
X57173980Y-52134304D02*
X57207313Y-52200970D01*
X69779122Y-36142561D02*
X69812455Y-36109227D01*
X69812455Y-36109227D02*
X69879122Y-36075894D01*
X69879122Y-36075894D02*
X70045789Y-36075894D01*
X70045789Y-36075894D02*
X70112455Y-36109227D01*
X70112455Y-36109227D02*
X70145789Y-36142561D01*
X70145789Y-36142561D02*
X70179122Y-36209227D01*
X70179122Y-36209227D02*
X70179122Y-36275894D01*
X70179122Y-36275894D02*
X70145789Y-36375894D01*
X70145789Y-36375894D02*
X69745789Y-36775894D01*
X69745789Y-36775894D02*
X70179122Y-36775894D01*
X70612456Y-36075894D02*
X70679122Y-36075894D01*
X70679122Y-36075894D02*
X70745789Y-36109227D01*
X70745789Y-36109227D02*
X70779122Y-36142561D01*
X70779122Y-36142561D02*
X70812456Y-36209227D01*
X70812456Y-36209227D02*
X70845789Y-36342561D01*
X70845789Y-36342561D02*
X70845789Y-36509227D01*
X70845789Y-36509227D02*
X70812456Y-36642561D01*
X70812456Y-36642561D02*
X70779122Y-36709227D01*
X70779122Y-36709227D02*
X70745789Y-36742561D01*
X70745789Y-36742561D02*
X70679122Y-36775894D01*
X70679122Y-36775894D02*
X70612456Y-36775894D01*
X70612456Y-36775894D02*
X70545789Y-36742561D01*
X70545789Y-36742561D02*
X70512456Y-36709227D01*
X70512456Y-36709227D02*
X70479122Y-36642561D01*
X70479122Y-36642561D02*
X70445789Y-36509227D01*
X70445789Y-36509227D02*
X70445789Y-36342561D01*
X70445789Y-36342561D02*
X70479122Y-36209227D01*
X70479122Y-36209227D02*
X70512456Y-36142561D01*
X70512456Y-36142561D02*
X70545789Y-36109227D01*
X70545789Y-36109227D02*
X70612456Y-36075894D01*
X61443673Y-52700971D02*
X61443673Y-52634304D01*
X61443673Y-52634304D02*
X61477006Y-52567637D01*
X61477006Y-52567637D02*
X61510340Y-52534304D01*
X61510340Y-52534304D02*
X61577006Y-52500971D01*
X61577006Y-52500971D02*
X61710340Y-52467637D01*
X61710340Y-52467637D02*
X61877006Y-52467637D01*
X61877006Y-52467637D02*
X62010340Y-52500971D01*
X62010340Y-52500971D02*
X62077006Y-52534304D01*
X62077006Y-52534304D02*
X62110340Y-52567637D01*
X62110340Y-52567637D02*
X62143673Y-52634304D01*
X62143673Y-52634304D02*
X62143673Y-52700971D01*
X62143673Y-52700971D02*
X62110340Y-52767637D01*
X62110340Y-52767637D02*
X62077006Y-52800971D01*
X62077006Y-52800971D02*
X62010340Y-52834304D01*
X62010340Y-52834304D02*
X61877006Y-52867637D01*
X61877006Y-52867637D02*
X61710340Y-52867637D01*
X61710340Y-52867637D02*
X61577006Y-52834304D01*
X61577006Y-52834304D02*
X61510340Y-52800971D01*
X61510340Y-52800971D02*
X61477006Y-52767637D01*
X61477006Y-52767637D02*
X61443673Y-52700971D01*
X61443673Y-51834304D02*
X61443673Y-52167637D01*
X61443673Y-52167637D02*
X61777006Y-52200970D01*
X61777006Y-52200970D02*
X61743673Y-52167637D01*
X61743673Y-52167637D02*
X61710340Y-52100970D01*
X61710340Y-52100970D02*
X61710340Y-51934304D01*
X61710340Y-51934304D02*
X61743673Y-51867637D01*
X61743673Y-51867637D02*
X61777006Y-51834304D01*
X61777006Y-51834304D02*
X61843673Y-51800970D01*
X61843673Y-51800970D02*
X62010340Y-51800970D01*
X62010340Y-51800970D02*
X62077006Y-51834304D01*
X62077006Y-51834304D02*
X62110340Y-51867637D01*
X62110340Y-51867637D02*
X62143673Y-51934304D01*
X62143673Y-51934304D02*
X62143673Y-52100970D01*
X62143673Y-52100970D02*
X62110340Y-52167637D01*
X62110340Y-52167637D02*
X62077006Y-52200970D01*
X70179122Y-44375893D02*
X69779122Y-44375893D01*
X69979122Y-44375893D02*
X69979122Y-43675893D01*
X69979122Y-43675893D02*
X69912455Y-43775893D01*
X69912455Y-43775893D02*
X69845789Y-43842560D01*
X69845789Y-43842560D02*
X69779122Y-43875893D01*
X70812456Y-43675893D02*
X70479122Y-43675893D01*
X70479122Y-43675893D02*
X70445789Y-44009226D01*
X70445789Y-44009226D02*
X70479122Y-43975893D01*
X70479122Y-43975893D02*
X70545789Y-43942560D01*
X70545789Y-43942560D02*
X70712456Y-43942560D01*
X70712456Y-43942560D02*
X70779122Y-43975893D01*
X70779122Y-43975893D02*
X70812456Y-44009226D01*
X70812456Y-44009226D02*
X70845789Y-44075893D01*
X70845789Y-44075893D02*
X70845789Y-44242560D01*
X70845789Y-44242560D02*
X70812456Y-44309226D01*
X70812456Y-44309226D02*
X70779122Y-44342560D01*
X70779122Y-44342560D02*
X70712456Y-44375893D01*
X70712456Y-44375893D02*
X70545789Y-44375893D01*
X70545789Y-44375893D02*
X70479122Y-44342560D01*
X70479122Y-44342560D02*
X70445789Y-44309226D01*
X51579122Y-41542560D02*
X51612455Y-41509226D01*
X51612455Y-41509226D02*
X51679122Y-41475893D01*
X51679122Y-41475893D02*
X51845789Y-41475893D01*
X51845789Y-41475893D02*
X51912455Y-41509226D01*
X51912455Y-41509226D02*
X51945789Y-41542560D01*
X51945789Y-41542560D02*
X51979122Y-41609226D01*
X51979122Y-41609226D02*
X51979122Y-41675893D01*
X51979122Y-41675893D02*
X51945789Y-41775893D01*
X51945789Y-41775893D02*
X51545789Y-42175893D01*
X51545789Y-42175893D02*
X51979122Y-42175893D01*
X52612456Y-41475893D02*
X52279122Y-41475893D01*
X52279122Y-41475893D02*
X52245789Y-41809226D01*
X52245789Y-41809226D02*
X52279122Y-41775893D01*
X52279122Y-41775893D02*
X52345789Y-41742560D01*
X52345789Y-41742560D02*
X52512456Y-41742560D01*
X52512456Y-41742560D02*
X52579122Y-41775893D01*
X52579122Y-41775893D02*
X52612456Y-41809226D01*
X52612456Y-41809226D02*
X52645789Y-41875893D01*
X52645789Y-41875893D02*
X52645789Y-42042560D01*
X52645789Y-42042560D02*
X52612456Y-42109226D01*
X52612456Y-42109226D02*
X52579122Y-42142560D01*
X52579122Y-42142560D02*
X52512456Y-42175893D01*
X52512456Y-42175893D02*
X52345789Y-42175893D01*
X52345789Y-42175893D02*
X52279122Y-42142560D01*
X52279122Y-42142560D02*
X52245789Y-42109226D01*
X70179122Y-46709227D02*
X69779122Y-46709227D01*
X69979122Y-46709227D02*
X69979122Y-46009227D01*
X69979122Y-46009227D02*
X69912455Y-46109227D01*
X69912455Y-46109227D02*
X69845789Y-46175894D01*
X69845789Y-46175894D02*
X69779122Y-46209227D01*
X70412456Y-46009227D02*
X70845789Y-46009227D01*
X70845789Y-46009227D02*
X70612456Y-46275894D01*
X70612456Y-46275894D02*
X70712456Y-46275894D01*
X70712456Y-46275894D02*
X70779122Y-46309227D01*
X70779122Y-46309227D02*
X70812456Y-46342560D01*
X70812456Y-46342560D02*
X70845789Y-46409227D01*
X70845789Y-46409227D02*
X70845789Y-46575894D01*
X70845789Y-46575894D02*
X70812456Y-46642560D01*
X70812456Y-46642560D02*
X70779122Y-46675894D01*
X70779122Y-46675894D02*
X70712456Y-46709227D01*
X70712456Y-46709227D02*
X70512456Y-46709227D01*
X70512456Y-46709227D02*
X70445789Y-46675894D01*
X70445789Y-46675894D02*
X70412456Y-46642560D01*
X60334583Y-52700971D02*
X60334583Y-52634304D01*
X60334583Y-52634304D02*
X60367916Y-52567637D01*
X60367916Y-52567637D02*
X60401250Y-52534304D01*
X60401250Y-52534304D02*
X60467916Y-52500971D01*
X60467916Y-52500971D02*
X60601250Y-52467637D01*
X60601250Y-52467637D02*
X60767916Y-52467637D01*
X60767916Y-52467637D02*
X60901250Y-52500971D01*
X60901250Y-52500971D02*
X60967916Y-52534304D01*
X60967916Y-52534304D02*
X61001250Y-52567637D01*
X61001250Y-52567637D02*
X61034583Y-52634304D01*
X61034583Y-52634304D02*
X61034583Y-52700971D01*
X61034583Y-52700971D02*
X61001250Y-52767637D01*
X61001250Y-52767637D02*
X60967916Y-52800971D01*
X60967916Y-52800971D02*
X60901250Y-52834304D01*
X60901250Y-52834304D02*
X60767916Y-52867637D01*
X60767916Y-52867637D02*
X60601250Y-52867637D01*
X60601250Y-52867637D02*
X60467916Y-52834304D01*
X60467916Y-52834304D02*
X60401250Y-52800971D01*
X60401250Y-52800971D02*
X60367916Y-52767637D01*
X60367916Y-52767637D02*
X60334583Y-52700971D01*
X60567916Y-51867637D02*
X61034583Y-51867637D01*
X60301250Y-52034304D02*
X60801250Y-52200970D01*
X60801250Y-52200970D02*
X60801250Y-51767637D01*
X54789133Y-52900971D02*
X54789133Y-52467637D01*
X54789133Y-52467637D02*
X55055800Y-52700971D01*
X55055800Y-52700971D02*
X55055800Y-52600971D01*
X55055800Y-52600971D02*
X55089133Y-52534304D01*
X55089133Y-52534304D02*
X55122466Y-52500971D01*
X55122466Y-52500971D02*
X55189133Y-52467637D01*
X55189133Y-52467637D02*
X55355800Y-52467637D01*
X55355800Y-52467637D02*
X55422466Y-52500971D01*
X55422466Y-52500971D02*
X55455800Y-52534304D01*
X55455800Y-52534304D02*
X55489133Y-52600971D01*
X55489133Y-52600971D02*
X55489133Y-52800971D01*
X55489133Y-52800971D02*
X55455800Y-52867637D01*
X55455800Y-52867637D02*
X55422466Y-52900971D01*
X54789133Y-52034304D02*
X54789133Y-51967637D01*
X54789133Y-51967637D02*
X54822466Y-51900970D01*
X54822466Y-51900970D02*
X54855800Y-51867637D01*
X54855800Y-51867637D02*
X54922466Y-51834304D01*
X54922466Y-51834304D02*
X55055800Y-51800970D01*
X55055800Y-51800970D02*
X55222466Y-51800970D01*
X55222466Y-51800970D02*
X55355800Y-51834304D01*
X55355800Y-51834304D02*
X55422466Y-51867637D01*
X55422466Y-51867637D02*
X55455800Y-51900970D01*
X55455800Y-51900970D02*
X55489133Y-51967637D01*
X55489133Y-51967637D02*
X55489133Y-52034304D01*
X55489133Y-52034304D02*
X55455800Y-52100970D01*
X55455800Y-52100970D02*
X55422466Y-52134304D01*
X55422466Y-52134304D02*
X55355800Y-52167637D01*
X55355800Y-52167637D02*
X55222466Y-52200970D01*
X55222466Y-52200970D02*
X55055800Y-52200970D01*
X55055800Y-52200970D02*
X54922466Y-52167637D01*
X54922466Y-52167637D02*
X54855800Y-52134304D01*
X54855800Y-52134304D02*
X54822466Y-52100970D01*
X54822466Y-52100970D02*
X54789133Y-52034304D01*
X70179122Y-37855894D02*
X69779122Y-37855894D01*
X69979122Y-37855894D02*
X69979122Y-37155894D01*
X69979122Y-37155894D02*
X69912455Y-37255894D01*
X69912455Y-37255894D02*
X69845789Y-37322561D01*
X69845789Y-37322561D02*
X69779122Y-37355894D01*
X70512456Y-37855894D02*
X70645789Y-37855894D01*
X70645789Y-37855894D02*
X70712456Y-37822561D01*
X70712456Y-37822561D02*
X70745789Y-37789227D01*
X70745789Y-37789227D02*
X70812456Y-37689227D01*
X70812456Y-37689227D02*
X70845789Y-37555894D01*
X70845789Y-37555894D02*
X70845789Y-37289227D01*
X70845789Y-37289227D02*
X70812456Y-37222561D01*
X70812456Y-37222561D02*
X70779122Y-37189227D01*
X70779122Y-37189227D02*
X70712456Y-37155894D01*
X70712456Y-37155894D02*
X70579122Y-37155894D01*
X70579122Y-37155894D02*
X70512456Y-37189227D01*
X70512456Y-37189227D02*
X70479122Y-37222561D01*
X70479122Y-37222561D02*
X70445789Y-37289227D01*
X70445789Y-37289227D02*
X70445789Y-37455894D01*
X70445789Y-37455894D02*
X70479122Y-37522561D01*
X70479122Y-37522561D02*
X70512456Y-37555894D01*
X70512456Y-37555894D02*
X70579122Y-37589227D01*
X70579122Y-37589227D02*
X70712456Y-37589227D01*
X70712456Y-37589227D02*
X70779122Y-37555894D01*
X70779122Y-37555894D02*
X70812456Y-37522561D01*
X70812456Y-37522561D02*
X70845789Y-37455894D01*
X55898223Y-52700971D02*
X55898223Y-52634304D01*
X55898223Y-52634304D02*
X55931556Y-52567637D01*
X55931556Y-52567637D02*
X55964890Y-52534304D01*
X55964890Y-52534304D02*
X56031556Y-52500971D01*
X56031556Y-52500971D02*
X56164890Y-52467637D01*
X56164890Y-52467637D02*
X56331556Y-52467637D01*
X56331556Y-52467637D02*
X56464890Y-52500971D01*
X56464890Y-52500971D02*
X56531556Y-52534304D01*
X56531556Y-52534304D02*
X56564890Y-52567637D01*
X56564890Y-52567637D02*
X56598223Y-52634304D01*
X56598223Y-52634304D02*
X56598223Y-52700971D01*
X56598223Y-52700971D02*
X56564890Y-52767637D01*
X56564890Y-52767637D02*
X56531556Y-52800971D01*
X56531556Y-52800971D02*
X56464890Y-52834304D01*
X56464890Y-52834304D02*
X56331556Y-52867637D01*
X56331556Y-52867637D02*
X56164890Y-52867637D01*
X56164890Y-52867637D02*
X56031556Y-52834304D01*
X56031556Y-52834304D02*
X55964890Y-52800971D01*
X55964890Y-52800971D02*
X55931556Y-52767637D01*
X55931556Y-52767637D02*
X55898223Y-52700971D01*
X55898223Y-52034304D02*
X55898223Y-51967637D01*
X55898223Y-51967637D02*
X55931556Y-51900970D01*
X55931556Y-51900970D02*
X55964890Y-51867637D01*
X55964890Y-51867637D02*
X56031556Y-51834304D01*
X56031556Y-51834304D02*
X56164890Y-51800970D01*
X56164890Y-51800970D02*
X56331556Y-51800970D01*
X56331556Y-51800970D02*
X56464890Y-51834304D01*
X56464890Y-51834304D02*
X56531556Y-51867637D01*
X56531556Y-51867637D02*
X56564890Y-51900970D01*
X56564890Y-51900970D02*
X56598223Y-51967637D01*
X56598223Y-51967637D02*
X56598223Y-52034304D01*
X56598223Y-52034304D02*
X56564890Y-52100970D01*
X56564890Y-52100970D02*
X56531556Y-52134304D01*
X56531556Y-52134304D02*
X56464890Y-52167637D01*
X56464890Y-52167637D02*
X56331556Y-52200970D01*
X56331556Y-52200970D02*
X56164890Y-52200970D01*
X56164890Y-52200970D02*
X56031556Y-52167637D01*
X56031556Y-52167637D02*
X55964890Y-52134304D01*
X55964890Y-52134304D02*
X55931556Y-52100970D01*
X55931556Y-52100970D02*
X55898223Y-52034304D01*
X50912455Y-48275892D02*
X51145789Y-48975892D01*
X51145789Y-48975892D02*
X51379122Y-48275892D01*
X51612455Y-48975892D02*
X51612455Y-48275892D01*
X51612455Y-48275892D02*
X51779122Y-48275892D01*
X51779122Y-48275892D02*
X51879122Y-48309225D01*
X51879122Y-48309225D02*
X51945789Y-48375892D01*
X51945789Y-48375892D02*
X51979122Y-48442559D01*
X51979122Y-48442559D02*
X52012455Y-48575892D01*
X52012455Y-48575892D02*
X52012455Y-48675892D01*
X52012455Y-48675892D02*
X51979122Y-48809225D01*
X51979122Y-48809225D02*
X51945789Y-48875892D01*
X51945789Y-48875892D02*
X51879122Y-48942559D01*
X51879122Y-48942559D02*
X51779122Y-48975892D01*
X51779122Y-48975892D02*
X51612455Y-48975892D01*
X52312455Y-48975892D02*
X52312455Y-48275892D01*
X52312455Y-48275892D02*
X52479122Y-48275892D01*
X52479122Y-48275892D02*
X52579122Y-48309225D01*
X52579122Y-48309225D02*
X52645789Y-48375892D01*
X52645789Y-48375892D02*
X52679122Y-48442559D01*
X52679122Y-48442559D02*
X52712455Y-48575892D01*
X52712455Y-48575892D02*
X52712455Y-48675892D01*
X52712455Y-48675892D02*
X52679122Y-48809225D01*
X52679122Y-48809225D02*
X52645789Y-48875892D01*
X52645789Y-48875892D02*
X52579122Y-48942559D01*
X52579122Y-48942559D02*
X52479122Y-48975892D01*
X52479122Y-48975892D02*
X52312455Y-48975892D01*
X67689123Y-52467637D02*
X67689123Y-52867637D01*
X67689123Y-52667637D02*
X66989123Y-52667637D01*
X66989123Y-52667637D02*
X67089123Y-52734304D01*
X67089123Y-52734304D02*
X67155790Y-52800971D01*
X67155790Y-52800971D02*
X67189123Y-52867637D01*
X66989123Y-52034304D02*
X66989123Y-51967637D01*
X66989123Y-51967637D02*
X67022456Y-51900970D01*
X67022456Y-51900970D02*
X67055790Y-51867637D01*
X67055790Y-51867637D02*
X67122456Y-51834304D01*
X67122456Y-51834304D02*
X67255790Y-51800970D01*
X67255790Y-51800970D02*
X67422456Y-51800970D01*
X67422456Y-51800970D02*
X67555790Y-51834304D01*
X67555790Y-51834304D02*
X67622456Y-51867637D01*
X67622456Y-51867637D02*
X67655790Y-51900970D01*
X67655790Y-51900970D02*
X67689123Y-51967637D01*
X67689123Y-51967637D02*
X67689123Y-52034304D01*
X67689123Y-52034304D02*
X67655790Y-52100970D01*
X67655790Y-52100970D02*
X67622456Y-52134304D01*
X67622456Y-52134304D02*
X67555790Y-52167637D01*
X67555790Y-52167637D02*
X67422456Y-52200970D01*
X67422456Y-52200970D02*
X67255790Y-52200970D01*
X67255790Y-52200970D02*
X67122456Y-52167637D01*
X67122456Y-52167637D02*
X67055790Y-52134304D01*
X67055790Y-52134304D02*
X67022456Y-52100970D01*
X67022456Y-52100970D02*
X66989123Y-52034304D01*
X51579122Y-39382560D02*
X51612455Y-39349226D01*
X51612455Y-39349226D02*
X51679122Y-39315893D01*
X51679122Y-39315893D02*
X51845789Y-39315893D01*
X51845789Y-39315893D02*
X51912455Y-39349226D01*
X51912455Y-39349226D02*
X51945789Y-39382560D01*
X51945789Y-39382560D02*
X51979122Y-39449226D01*
X51979122Y-39449226D02*
X51979122Y-39515893D01*
X51979122Y-39515893D02*
X51945789Y-39615893D01*
X51945789Y-39615893D02*
X51545789Y-40015893D01*
X51545789Y-40015893D02*
X51979122Y-40015893D01*
X52212456Y-39315893D02*
X52645789Y-39315893D01*
X52645789Y-39315893D02*
X52412456Y-39582560D01*
X52412456Y-39582560D02*
X52512456Y-39582560D01*
X52512456Y-39582560D02*
X52579122Y-39615893D01*
X52579122Y-39615893D02*
X52612456Y-39649226D01*
X52612456Y-39649226D02*
X52645789Y-39715893D01*
X52645789Y-39715893D02*
X52645789Y-39882560D01*
X52645789Y-39882560D02*
X52612456Y-39949226D01*
X52612456Y-39949226D02*
X52579122Y-39982560D01*
X52579122Y-39982560D02*
X52512456Y-40015893D01*
X52512456Y-40015893D02*
X52312456Y-40015893D01*
X52312456Y-40015893D02*
X52245789Y-39982560D01*
X52245789Y-39982560D02*
X52212456Y-39949226D01*
X51179122Y-36109226D02*
X51112455Y-36075893D01*
X51112455Y-36075893D02*
X51012455Y-36075893D01*
X51012455Y-36075893D02*
X50912455Y-36109226D01*
X50912455Y-36109226D02*
X50845789Y-36175893D01*
X50845789Y-36175893D02*
X50812455Y-36242560D01*
X50812455Y-36242560D02*
X50779122Y-36375893D01*
X50779122Y-36375893D02*
X50779122Y-36475893D01*
X50779122Y-36475893D02*
X50812455Y-36609226D01*
X50812455Y-36609226D02*
X50845789Y-36675893D01*
X50845789Y-36675893D02*
X50912455Y-36742560D01*
X50912455Y-36742560D02*
X51012455Y-36775893D01*
X51012455Y-36775893D02*
X51079122Y-36775893D01*
X51079122Y-36775893D02*
X51179122Y-36742560D01*
X51179122Y-36742560D02*
X51212455Y-36709226D01*
X51212455Y-36709226D02*
X51212455Y-36475893D01*
X51212455Y-36475893D02*
X51079122Y-36475893D01*
X51512455Y-36775893D02*
X51512455Y-36075893D01*
X51512455Y-36075893D02*
X51912455Y-36775893D01*
X51912455Y-36775893D02*
X51912455Y-36075893D01*
X52245788Y-36775893D02*
X52245788Y-36075893D01*
X52245788Y-36075893D02*
X52412455Y-36075893D01*
X52412455Y-36075893D02*
X52512455Y-36109226D01*
X52512455Y-36109226D02*
X52579122Y-36175893D01*
X52579122Y-36175893D02*
X52612455Y-36242560D01*
X52612455Y-36242560D02*
X52645788Y-36375893D01*
X52645788Y-36375893D02*
X52645788Y-36475893D01*
X52645788Y-36475893D02*
X52612455Y-36609226D01*
X52612455Y-36609226D02*
X52579122Y-36675893D01*
X52579122Y-36675893D02*
X52512455Y-36742560D01*
X52512455Y-36742560D02*
X52412455Y-36775893D01*
X52412455Y-36775893D02*
X52245788Y-36775893D01*
X70179122Y-40015894D02*
X69779122Y-40015894D01*
X69979122Y-40015894D02*
X69979122Y-39315894D01*
X69979122Y-39315894D02*
X69912455Y-39415894D01*
X69912455Y-39415894D02*
X69845789Y-39482561D01*
X69845789Y-39482561D02*
X69779122Y-39515894D01*
X70412456Y-39315894D02*
X70879122Y-39315894D01*
X70879122Y-39315894D02*
X70579122Y-40015894D01*
X65880033Y-52700971D02*
X65880033Y-52634304D01*
X65880033Y-52634304D02*
X65913366Y-52567637D01*
X65913366Y-52567637D02*
X65946700Y-52534304D01*
X65946700Y-52534304D02*
X66013366Y-52500971D01*
X66013366Y-52500971D02*
X66146700Y-52467637D01*
X66146700Y-52467637D02*
X66313366Y-52467637D01*
X66313366Y-52467637D02*
X66446700Y-52500971D01*
X66446700Y-52500971D02*
X66513366Y-52534304D01*
X66513366Y-52534304D02*
X66546700Y-52567637D01*
X66546700Y-52567637D02*
X66580033Y-52634304D01*
X66580033Y-52634304D02*
X66580033Y-52700971D01*
X66580033Y-52700971D02*
X66546700Y-52767637D01*
X66546700Y-52767637D02*
X66513366Y-52800971D01*
X66513366Y-52800971D02*
X66446700Y-52834304D01*
X66446700Y-52834304D02*
X66313366Y-52867637D01*
X66313366Y-52867637D02*
X66146700Y-52867637D01*
X66146700Y-52867637D02*
X66013366Y-52834304D01*
X66013366Y-52834304D02*
X65946700Y-52800971D01*
X65946700Y-52800971D02*
X65913366Y-52767637D01*
X65913366Y-52767637D02*
X65880033Y-52700971D01*
X66580033Y-52134304D02*
X66580033Y-52000970D01*
X66580033Y-52000970D02*
X66546700Y-51934304D01*
X66546700Y-51934304D02*
X66513366Y-51900970D01*
X66513366Y-51900970D02*
X66413366Y-51834304D01*
X66413366Y-51834304D02*
X66280033Y-51800970D01*
X66280033Y-51800970D02*
X66013366Y-51800970D01*
X66013366Y-51800970D02*
X65946700Y-51834304D01*
X65946700Y-51834304D02*
X65913366Y-51867637D01*
X65913366Y-51867637D02*
X65880033Y-51934304D01*
X65880033Y-51934304D02*
X65880033Y-52067637D01*
X65880033Y-52067637D02*
X65913366Y-52134304D01*
X65913366Y-52134304D02*
X65946700Y-52167637D01*
X65946700Y-52167637D02*
X66013366Y-52200970D01*
X66013366Y-52200970D02*
X66180033Y-52200970D01*
X66180033Y-52200970D02*
X66246700Y-52167637D01*
X66246700Y-52167637D02*
X66280033Y-52134304D01*
X66280033Y-52134304D02*
X66313366Y-52067637D01*
X66313366Y-52067637D02*
X66313366Y-51934304D01*
X66313366Y-51934304D02*
X66280033Y-51867637D01*
X66280033Y-51867637D02*
X66246700Y-51834304D01*
X66246700Y-51834304D02*
X66180033Y-51800970D01*
X62552763Y-52700971D02*
X62552763Y-52634304D01*
X62552763Y-52634304D02*
X62586096Y-52567637D01*
X62586096Y-52567637D02*
X62619430Y-52534304D01*
X62619430Y-52534304D02*
X62686096Y-52500971D01*
X62686096Y-52500971D02*
X62819430Y-52467637D01*
X62819430Y-52467637D02*
X62986096Y-52467637D01*
X62986096Y-52467637D02*
X63119430Y-52500971D01*
X63119430Y-52500971D02*
X63186096Y-52534304D01*
X63186096Y-52534304D02*
X63219430Y-52567637D01*
X63219430Y-52567637D02*
X63252763Y-52634304D01*
X63252763Y-52634304D02*
X63252763Y-52700971D01*
X63252763Y-52700971D02*
X63219430Y-52767637D01*
X63219430Y-52767637D02*
X63186096Y-52800971D01*
X63186096Y-52800971D02*
X63119430Y-52834304D01*
X63119430Y-52834304D02*
X62986096Y-52867637D01*
X62986096Y-52867637D02*
X62819430Y-52867637D01*
X62819430Y-52867637D02*
X62686096Y-52834304D01*
X62686096Y-52834304D02*
X62619430Y-52800971D01*
X62619430Y-52800971D02*
X62586096Y-52767637D01*
X62586096Y-52767637D02*
X62552763Y-52700971D01*
X62552763Y-51867637D02*
X62552763Y-52000970D01*
X62552763Y-52000970D02*
X62586096Y-52067637D01*
X62586096Y-52067637D02*
X62619430Y-52100970D01*
X62619430Y-52100970D02*
X62719430Y-52167637D01*
X62719430Y-52167637D02*
X62852763Y-52200970D01*
X62852763Y-52200970D02*
X63119430Y-52200970D01*
X63119430Y-52200970D02*
X63186096Y-52167637D01*
X63186096Y-52167637D02*
X63219430Y-52134304D01*
X63219430Y-52134304D02*
X63252763Y-52067637D01*
X63252763Y-52067637D02*
X63252763Y-51934304D01*
X63252763Y-51934304D02*
X63219430Y-51867637D01*
X63219430Y-51867637D02*
X63186096Y-51834304D01*
X63186096Y-51834304D02*
X63119430Y-51800970D01*
X63119430Y-51800970D02*
X62952763Y-51800970D01*
X62952763Y-51800970D02*
X62886096Y-51834304D01*
X62886096Y-51834304D02*
X62852763Y-51867637D01*
X62852763Y-51867637D02*
X62819430Y-51934304D01*
X62819430Y-51934304D02*
X62819430Y-52067637D01*
X62819430Y-52067637D02*
X62852763Y-52134304D01*
X62852763Y-52134304D02*
X62886096Y-52167637D01*
X62886096Y-52167637D02*
X62952763Y-52200970D01*
X64770943Y-52700971D02*
X64770943Y-52634304D01*
X64770943Y-52634304D02*
X64804276Y-52567637D01*
X64804276Y-52567637D02*
X64837610Y-52534304D01*
X64837610Y-52534304D02*
X64904276Y-52500971D01*
X64904276Y-52500971D02*
X65037610Y-52467637D01*
X65037610Y-52467637D02*
X65204276Y-52467637D01*
X65204276Y-52467637D02*
X65337610Y-52500971D01*
X65337610Y-52500971D02*
X65404276Y-52534304D01*
X65404276Y-52534304D02*
X65437610Y-52567637D01*
X65437610Y-52567637D02*
X65470943Y-52634304D01*
X65470943Y-52634304D02*
X65470943Y-52700971D01*
X65470943Y-52700971D02*
X65437610Y-52767637D01*
X65437610Y-52767637D02*
X65404276Y-52800971D01*
X65404276Y-52800971D02*
X65337610Y-52834304D01*
X65337610Y-52834304D02*
X65204276Y-52867637D01*
X65204276Y-52867637D02*
X65037610Y-52867637D01*
X65037610Y-52867637D02*
X64904276Y-52834304D01*
X64904276Y-52834304D02*
X64837610Y-52800971D01*
X64837610Y-52800971D02*
X64804276Y-52767637D01*
X64804276Y-52767637D02*
X64770943Y-52700971D01*
X65070943Y-52067637D02*
X65037610Y-52134304D01*
X65037610Y-52134304D02*
X65004276Y-52167637D01*
X65004276Y-52167637D02*
X64937610Y-52200970D01*
X64937610Y-52200970D02*
X64904276Y-52200970D01*
X64904276Y-52200970D02*
X64837610Y-52167637D01*
X64837610Y-52167637D02*
X64804276Y-52134304D01*
X64804276Y-52134304D02*
X64770943Y-52067637D01*
X64770943Y-52067637D02*
X64770943Y-51934304D01*
X64770943Y-51934304D02*
X64804276Y-51867637D01*
X64804276Y-51867637D02*
X64837610Y-51834304D01*
X64837610Y-51834304D02*
X64904276Y-51800970D01*
X64904276Y-51800970D02*
X64937610Y-51800970D01*
X64937610Y-51800970D02*
X65004276Y-51834304D01*
X65004276Y-51834304D02*
X65037610Y-51867637D01*
X65037610Y-51867637D02*
X65070943Y-51934304D01*
X65070943Y-51934304D02*
X65070943Y-52067637D01*
X65070943Y-52067637D02*
X65104276Y-52134304D01*
X65104276Y-52134304D02*
X65137610Y-52167637D01*
X65137610Y-52167637D02*
X65204276Y-52200970D01*
X65204276Y-52200970D02*
X65337610Y-52200970D01*
X65337610Y-52200970D02*
X65404276Y-52167637D01*
X65404276Y-52167637D02*
X65437610Y-52134304D01*
X65437610Y-52134304D02*
X65470943Y-52067637D01*
X65470943Y-52067637D02*
X65470943Y-51934304D01*
X65470943Y-51934304D02*
X65437610Y-51867637D01*
X65437610Y-51867637D02*
X65404276Y-51834304D01*
X65404276Y-51834304D02*
X65337610Y-51800970D01*
X65337610Y-51800970D02*
X65204276Y-51800970D01*
X65204276Y-51800970D02*
X65137610Y-51834304D01*
X65137610Y-51834304D02*
X65104276Y-51867637D01*
X65104276Y-51867637D02*
X65070943Y-51934304D01*
X70179122Y-47842560D02*
X69779122Y-47842560D01*
X69979122Y-47842560D02*
X69979122Y-47142560D01*
X69979122Y-47142560D02*
X69912455Y-47242560D01*
X69912455Y-47242560D02*
X69845789Y-47309227D01*
X69845789Y-47309227D02*
X69779122Y-47342560D01*
X70445789Y-47209227D02*
X70479122Y-47175893D01*
X70479122Y-47175893D02*
X70545789Y-47142560D01*
X70545789Y-47142560D02*
X70712456Y-47142560D01*
X70712456Y-47142560D02*
X70779122Y-47175893D01*
X70779122Y-47175893D02*
X70812456Y-47209227D01*
X70812456Y-47209227D02*
X70845789Y-47275893D01*
X70845789Y-47275893D02*
X70845789Y-47342560D01*
X70845789Y-47342560D02*
X70812456Y-47442560D01*
X70812456Y-47442560D02*
X70412456Y-47842560D01*
X70412456Y-47842560D02*
X70845789Y-47842560D01*
X51579122Y-46075893D02*
X51612455Y-46042559D01*
X51612455Y-46042559D02*
X51679122Y-46009226D01*
X51679122Y-46009226D02*
X51845789Y-46009226D01*
X51845789Y-46009226D02*
X51912455Y-46042559D01*
X51912455Y-46042559D02*
X51945789Y-46075893D01*
X51945789Y-46075893D02*
X51979122Y-46142559D01*
X51979122Y-46142559D02*
X51979122Y-46209226D01*
X51979122Y-46209226D02*
X51945789Y-46309226D01*
X51945789Y-46309226D02*
X51545789Y-46709226D01*
X51545789Y-46709226D02*
X51979122Y-46709226D01*
X52312456Y-46709226D02*
X52445789Y-46709226D01*
X52445789Y-46709226D02*
X52512456Y-46675893D01*
X52512456Y-46675893D02*
X52545789Y-46642559D01*
X52545789Y-46642559D02*
X52612456Y-46542559D01*
X52612456Y-46542559D02*
X52645789Y-46409226D01*
X52645789Y-46409226D02*
X52645789Y-46142559D01*
X52645789Y-46142559D02*
X52612456Y-46075893D01*
X52612456Y-46075893D02*
X52579122Y-46042559D01*
X52579122Y-46042559D02*
X52512456Y-46009226D01*
X52512456Y-46009226D02*
X52379122Y-46009226D01*
X52379122Y-46009226D02*
X52312456Y-46042559D01*
X52312456Y-46042559D02*
X52279122Y-46075893D01*
X52279122Y-46075893D02*
X52245789Y-46142559D01*
X52245789Y-46142559D02*
X52245789Y-46309226D01*
X52245789Y-46309226D02*
X52279122Y-46375893D01*
X52279122Y-46375893D02*
X52312456Y-46409226D01*
X52312456Y-46409226D02*
X52379122Y-46442559D01*
X52379122Y-46442559D02*
X52512456Y-46442559D01*
X52512456Y-46442559D02*
X52579122Y-46409226D01*
X52579122Y-46409226D02*
X52612456Y-46375893D01*
X52612456Y-46375893D02*
X52645789Y-46309226D01*
X51179122Y-47175892D02*
X51112455Y-47142559D01*
X51112455Y-47142559D02*
X51012455Y-47142559D01*
X51012455Y-47142559D02*
X50912455Y-47175892D01*
X50912455Y-47175892D02*
X50845789Y-47242559D01*
X50845789Y-47242559D02*
X50812455Y-47309226D01*
X50812455Y-47309226D02*
X50779122Y-47442559D01*
X50779122Y-47442559D02*
X50779122Y-47542559D01*
X50779122Y-47542559D02*
X50812455Y-47675892D01*
X50812455Y-47675892D02*
X50845789Y-47742559D01*
X50845789Y-47742559D02*
X50912455Y-47809226D01*
X50912455Y-47809226D02*
X51012455Y-47842559D01*
X51012455Y-47842559D02*
X51079122Y-47842559D01*
X51079122Y-47842559D02*
X51179122Y-47809226D01*
X51179122Y-47809226D02*
X51212455Y-47775892D01*
X51212455Y-47775892D02*
X51212455Y-47542559D01*
X51212455Y-47542559D02*
X51079122Y-47542559D01*
X51512455Y-47842559D02*
X51512455Y-47142559D01*
X51512455Y-47142559D02*
X51912455Y-47842559D01*
X51912455Y-47842559D02*
X51912455Y-47142559D01*
X52245788Y-47842559D02*
X52245788Y-47142559D01*
X52245788Y-47142559D02*
X52412455Y-47142559D01*
X52412455Y-47142559D02*
X52512455Y-47175892D01*
X52512455Y-47175892D02*
X52579122Y-47242559D01*
X52579122Y-47242559D02*
X52612455Y-47309226D01*
X52612455Y-47309226D02*
X52645788Y-47442559D01*
X52645788Y-47442559D02*
X52645788Y-47542559D01*
X52645788Y-47542559D02*
X52612455Y-47675892D01*
X52612455Y-47675892D02*
X52579122Y-47742559D01*
X52579122Y-47742559D02*
X52512455Y-47809226D01*
X52512455Y-47809226D02*
X52412455Y-47842559D01*
X52412455Y-47842559D02*
X52245788Y-47842559D01*
X70161122Y-49051633D02*
X69761122Y-49051633D01*
X69961122Y-49051633D02*
X69961122Y-48351633D01*
X69961122Y-48351633D02*
X69894455Y-48451633D01*
X69894455Y-48451633D02*
X69827789Y-48518300D01*
X69827789Y-48518300D02*
X69761122Y-48551633D01*
X70827789Y-49051633D02*
X70427789Y-49051633D01*
X70627789Y-49051633D02*
X70627789Y-48351633D01*
X70627789Y-48351633D02*
X70561122Y-48451633D01*
X70561122Y-48451633D02*
X70494456Y-48518300D01*
X70494456Y-48518300D02*
X70427789Y-48551633D01*
X51579122Y-37222560D02*
X51612455Y-37189226D01*
X51612455Y-37189226D02*
X51679122Y-37155893D01*
X51679122Y-37155893D02*
X51845789Y-37155893D01*
X51845789Y-37155893D02*
X51912455Y-37189226D01*
X51912455Y-37189226D02*
X51945789Y-37222560D01*
X51945789Y-37222560D02*
X51979122Y-37289226D01*
X51979122Y-37289226D02*
X51979122Y-37355893D01*
X51979122Y-37355893D02*
X51945789Y-37455893D01*
X51945789Y-37455893D02*
X51545789Y-37855893D01*
X51545789Y-37855893D02*
X51979122Y-37855893D01*
X52645789Y-37855893D02*
X52245789Y-37855893D01*
X52445789Y-37855893D02*
X52445789Y-37155893D01*
X52445789Y-37155893D02*
X52379122Y-37255893D01*
X52379122Y-37255893D02*
X52312456Y-37322560D01*
X52312456Y-37322560D02*
X52245789Y-37355893D01*
D10*
X69812017Y-42139961D02*
X69912017Y-42173294D01*
X69912017Y-42173294D02*
X70078684Y-42173294D01*
X70078684Y-42173294D02*
X70145350Y-42139961D01*
X70145350Y-42139961D02*
X70178684Y-42106627D01*
X70178684Y-42106627D02*
X70212017Y-42039961D01*
X70212017Y-42039961D02*
X70212017Y-41973294D01*
X70212017Y-41973294D02*
X70178684Y-41906627D01*
X70178684Y-41906627D02*
X70145350Y-41873294D01*
X70145350Y-41873294D02*
X70078684Y-41839961D01*
X70078684Y-41839961D02*
X69945350Y-41806627D01*
X69945350Y-41806627D02*
X69878684Y-41773294D01*
X69878684Y-41773294D02*
X69845350Y-41739961D01*
X69845350Y-41739961D02*
X69812017Y-41673294D01*
X69812017Y-41673294D02*
X69812017Y-41606627D01*
X69812017Y-41606627D02*
X69845350Y-41539961D01*
X69845350Y-41539961D02*
X69878684Y-41506627D01*
X69878684Y-41506627D02*
X69945350Y-41473294D01*
X69945350Y-41473294D02*
X70112017Y-41473294D01*
X70112017Y-41473294D02*
X70212017Y-41506627D01*
X70445351Y-41473294D02*
X70612017Y-42173294D01*
X70612017Y-42173294D02*
X70745351Y-41673294D01*
X70745351Y-41673294D02*
X70878684Y-42173294D01*
X70878684Y-42173294D02*
X71045351Y-41473294D01*
X71312017Y-42173294D02*
X71312017Y-41473294D01*
X71312017Y-41473294D02*
X71478684Y-41473294D01*
X71478684Y-41473294D02*
X71578684Y-41506627D01*
X71578684Y-41506627D02*
X71645351Y-41573294D01*
X71645351Y-41573294D02*
X71678684Y-41639961D01*
X71678684Y-41639961D02*
X71712017Y-41773294D01*
X71712017Y-41773294D02*
X71712017Y-41873294D01*
X71712017Y-41873294D02*
X71678684Y-42006627D01*
X71678684Y-42006627D02*
X71645351Y-42073294D01*
X71645351Y-42073294D02*
X71578684Y-42139961D01*
X71578684Y-42139961D02*
X71478684Y-42173294D01*
X71478684Y-42173294D02*
X71312017Y-42173294D01*
X72012017Y-42173294D02*
X72012017Y-41473294D01*
X72478684Y-41473294D02*
X72612017Y-41473294D01*
X72612017Y-41473294D02*
X72678684Y-41506627D01*
X72678684Y-41506627D02*
X72745350Y-41573294D01*
X72745350Y-41573294D02*
X72778684Y-41706627D01*
X72778684Y-41706627D02*
X72778684Y-41939961D01*
X72778684Y-41939961D02*
X72745350Y-42073294D01*
X72745350Y-42073294D02*
X72678684Y-42139961D01*
X72678684Y-42139961D02*
X72612017Y-42173294D01*
X72612017Y-42173294D02*
X72478684Y-42173294D01*
X72478684Y-42173294D02*
X72412017Y-42139961D01*
X72412017Y-42139961D02*
X72345350Y-42073294D01*
X72345350Y-42073294D02*
X72312017Y-41939961D01*
X72312017Y-41939961D02*
X72312017Y-41706627D01*
X72312017Y-41706627D02*
X72345350Y-41573294D01*
X72345350Y-41573294D02*
X72412017Y-41506627D01*
X72412017Y-41506627D02*
X72478684Y-41473294D01*
D13*
X51579122Y-44942560D02*
X51612455Y-44909226D01*
X51612455Y-44909226D02*
X51679122Y-44875893D01*
X51679122Y-44875893D02*
X51845789Y-44875893D01*
X51845789Y-44875893D02*
X51912455Y-44909226D01*
X51912455Y-44909226D02*
X51945789Y-44942560D01*
X51945789Y-44942560D02*
X51979122Y-45009226D01*
X51979122Y-45009226D02*
X51979122Y-45075893D01*
X51979122Y-45075893D02*
X51945789Y-45175893D01*
X51945789Y-45175893D02*
X51545789Y-45575893D01*
X51545789Y-45575893D02*
X51979122Y-45575893D01*
X52379122Y-45175893D02*
X52312456Y-45142560D01*
X52312456Y-45142560D02*
X52279122Y-45109226D01*
X52279122Y-45109226D02*
X52245789Y-45042560D01*
X52245789Y-45042560D02*
X52245789Y-45009226D01*
X52245789Y-45009226D02*
X52279122Y-44942560D01*
X52279122Y-44942560D02*
X52312456Y-44909226D01*
X52312456Y-44909226D02*
X52379122Y-44875893D01*
X52379122Y-44875893D02*
X52512456Y-44875893D01*
X52512456Y-44875893D02*
X52579122Y-44909226D01*
X52579122Y-44909226D02*
X52612456Y-44942560D01*
X52612456Y-44942560D02*
X52645789Y-45009226D01*
X52645789Y-45009226D02*
X52645789Y-45042560D01*
X52645789Y-45042560D02*
X52612456Y-45109226D01*
X52612456Y-45109226D02*
X52579122Y-45142560D01*
X52579122Y-45142560D02*
X52512456Y-45175893D01*
X52512456Y-45175893D02*
X52379122Y-45175893D01*
X52379122Y-45175893D02*
X52312456Y-45209226D01*
X52312456Y-45209226D02*
X52279122Y-45242560D01*
X52279122Y-45242560D02*
X52245789Y-45309226D01*
X52245789Y-45309226D02*
X52245789Y-45442560D01*
X52245789Y-45442560D02*
X52279122Y-45509226D01*
X52279122Y-45509226D02*
X52312456Y-45542560D01*
X52312456Y-45542560D02*
X52379122Y-45575893D01*
X52379122Y-45575893D02*
X52512456Y-45575893D01*
X52512456Y-45575893D02*
X52579122Y-45542560D01*
X52579122Y-45542560D02*
X52612456Y-45509226D01*
X52612456Y-45509226D02*
X52645789Y-45442560D01*
X52645789Y-45442560D02*
X52645789Y-45309226D01*
X52645789Y-45309226D02*
X52612456Y-45242560D01*
X52612456Y-45242560D02*
X52579122Y-45209226D01*
X52579122Y-45209226D02*
X52512456Y-45175893D01*
D10*
X69812017Y-41059961D02*
X69912017Y-41093294D01*
X69912017Y-41093294D02*
X70078684Y-41093294D01*
X70078684Y-41093294D02*
X70145350Y-41059961D01*
X70145350Y-41059961D02*
X70178684Y-41026627D01*
X70178684Y-41026627D02*
X70212017Y-40959961D01*
X70212017Y-40959961D02*
X70212017Y-40893294D01*
X70212017Y-40893294D02*
X70178684Y-40826627D01*
X70178684Y-40826627D02*
X70145350Y-40793294D01*
X70145350Y-40793294D02*
X70078684Y-40759961D01*
X70078684Y-40759961D02*
X69945350Y-40726627D01*
X69945350Y-40726627D02*
X69878684Y-40693294D01*
X69878684Y-40693294D02*
X69845350Y-40659961D01*
X69845350Y-40659961D02*
X69812017Y-40593294D01*
X69812017Y-40593294D02*
X69812017Y-40526627D01*
X69812017Y-40526627D02*
X69845350Y-40459961D01*
X69845350Y-40459961D02*
X69878684Y-40426627D01*
X69878684Y-40426627D02*
X69945350Y-40393294D01*
X69945350Y-40393294D02*
X70112017Y-40393294D01*
X70112017Y-40393294D02*
X70212017Y-40426627D01*
X70912017Y-41026627D02*
X70878684Y-41059961D01*
X70878684Y-41059961D02*
X70778684Y-41093294D01*
X70778684Y-41093294D02*
X70712017Y-41093294D01*
X70712017Y-41093294D02*
X70612017Y-41059961D01*
X70612017Y-41059961D02*
X70545351Y-40993294D01*
X70545351Y-40993294D02*
X70512017Y-40926627D01*
X70512017Y-40926627D02*
X70478684Y-40793294D01*
X70478684Y-40793294D02*
X70478684Y-40693294D01*
X70478684Y-40693294D02*
X70512017Y-40559961D01*
X70512017Y-40559961D02*
X70545351Y-40493294D01*
X70545351Y-40493294D02*
X70612017Y-40426627D01*
X70612017Y-40426627D02*
X70712017Y-40393294D01*
X70712017Y-40393294D02*
X70778684Y-40393294D01*
X70778684Y-40393294D02*
X70878684Y-40426627D01*
X70878684Y-40426627D02*
X70912017Y-40459961D01*
X71545351Y-41093294D02*
X71212017Y-41093294D01*
X71212017Y-41093294D02*
X71212017Y-40393294D01*
X71778684Y-41093294D02*
X71778684Y-40393294D01*
X72178684Y-41093294D02*
X71878684Y-40693294D01*
X72178684Y-40393294D02*
X71778684Y-40793294D01*
D13*
X59225493Y-52700971D02*
X59225493Y-52634304D01*
X59225493Y-52634304D02*
X59258826Y-52567637D01*
X59258826Y-52567637D02*
X59292160Y-52534304D01*
X59292160Y-52534304D02*
X59358826Y-52500971D01*
X59358826Y-52500971D02*
X59492160Y-52467637D01*
X59492160Y-52467637D02*
X59658826Y-52467637D01*
X59658826Y-52467637D02*
X59792160Y-52500971D01*
X59792160Y-52500971D02*
X59858826Y-52534304D01*
X59858826Y-52534304D02*
X59892160Y-52567637D01*
X59892160Y-52567637D02*
X59925493Y-52634304D01*
X59925493Y-52634304D02*
X59925493Y-52700971D01*
X59925493Y-52700971D02*
X59892160Y-52767637D01*
X59892160Y-52767637D02*
X59858826Y-52800971D01*
X59858826Y-52800971D02*
X59792160Y-52834304D01*
X59792160Y-52834304D02*
X59658826Y-52867637D01*
X59658826Y-52867637D02*
X59492160Y-52867637D01*
X59492160Y-52867637D02*
X59358826Y-52834304D01*
X59358826Y-52834304D02*
X59292160Y-52800971D01*
X59292160Y-52800971D02*
X59258826Y-52767637D01*
X59258826Y-52767637D02*
X59225493Y-52700971D01*
X59225493Y-52234304D02*
X59225493Y-51800970D01*
X59225493Y-51800970D02*
X59492160Y-52034304D01*
X59492160Y-52034304D02*
X59492160Y-51934304D01*
X59492160Y-51934304D02*
X59525493Y-51867637D01*
X59525493Y-51867637D02*
X59558826Y-51834304D01*
X59558826Y-51834304D02*
X59625493Y-51800970D01*
X59625493Y-51800970D02*
X59792160Y-51800970D01*
X59792160Y-51800970D02*
X59858826Y-51834304D01*
X59858826Y-51834304D02*
X59892160Y-51867637D01*
X59892160Y-51867637D02*
X59925493Y-51934304D01*
X59925493Y-51934304D02*
X59925493Y-52134304D01*
X59925493Y-52134304D02*
X59892160Y-52200970D01*
X59892160Y-52200970D02*
X59858826Y-52234304D01*
X70179122Y-43175893D02*
X69779122Y-43175893D01*
X69979122Y-43175893D02*
X69979122Y-42475893D01*
X69979122Y-42475893D02*
X69912455Y-42575893D01*
X69912455Y-42575893D02*
X69845789Y-42642560D01*
X69845789Y-42642560D02*
X69779122Y-42675893D01*
X70779122Y-42475893D02*
X70645789Y-42475893D01*
X70645789Y-42475893D02*
X70579122Y-42509226D01*
X70579122Y-42509226D02*
X70545789Y-42542560D01*
X70545789Y-42542560D02*
X70479122Y-42642560D01*
X70479122Y-42642560D02*
X70445789Y-42775893D01*
X70445789Y-42775893D02*
X70445789Y-43042560D01*
X70445789Y-43042560D02*
X70479122Y-43109226D01*
X70479122Y-43109226D02*
X70512456Y-43142560D01*
X70512456Y-43142560D02*
X70579122Y-43175893D01*
X70579122Y-43175893D02*
X70712456Y-43175893D01*
X70712456Y-43175893D02*
X70779122Y-43142560D01*
X70779122Y-43142560D02*
X70812456Y-43109226D01*
X70812456Y-43109226D02*
X70845789Y-43042560D01*
X70845789Y-43042560D02*
X70845789Y-42875893D01*
X70845789Y-42875893D02*
X70812456Y-42809226D01*
X70812456Y-42809226D02*
X70779122Y-42775893D01*
X70779122Y-42775893D02*
X70712456Y-42742560D01*
X70712456Y-42742560D02*
X70579122Y-42742560D01*
X70579122Y-42742560D02*
X70512456Y-42775893D01*
X70512456Y-42775893D02*
X70479122Y-42809226D01*
X70479122Y-42809226D02*
X70445789Y-42875893D01*
D10*
X50030142Y-53667819D02*
X49696809Y-53191628D01*
X49458714Y-53667819D02*
X49458714Y-52667819D01*
X49458714Y-52667819D02*
X49839666Y-52667819D01*
X49839666Y-52667819D02*
X49934904Y-52715438D01*
X49934904Y-52715438D02*
X49982523Y-52763057D01*
X49982523Y-52763057D02*
X50030142Y-52858295D01*
X50030142Y-52858295D02*
X50030142Y-53001152D01*
X50030142Y-53001152D02*
X49982523Y-53096390D01*
X49982523Y-53096390D02*
X49934904Y-53144009D01*
X49934904Y-53144009D02*
X49839666Y-53191628D01*
X49839666Y-53191628D02*
X49458714Y-53191628D01*
X50982523Y-53667819D02*
X50411095Y-53667819D01*
X50696809Y-53667819D02*
X50696809Y-52667819D01*
X50696809Y-52667819D02*
X50601571Y-52810676D01*
X50601571Y-52810676D02*
X50506333Y-52905914D01*
X50506333Y-52905914D02*
X50411095Y-52953533D01*
X51315857Y-52667819D02*
X51934904Y-52667819D01*
X51934904Y-52667819D02*
X51601571Y-53048771D01*
X51601571Y-53048771D02*
X51744428Y-53048771D01*
X51744428Y-53048771D02*
X51839666Y-53096390D01*
X51839666Y-53096390D02*
X51887285Y-53144009D01*
X51887285Y-53144009D02*
X51934904Y-53239247D01*
X51934904Y-53239247D02*
X51934904Y-53477342D01*
X51934904Y-53477342D02*
X51887285Y-53572580D01*
X51887285Y-53572580D02*
X51839666Y-53620200D01*
X51839666Y-53620200D02*
X51744428Y-53667819D01*
X51744428Y-53667819D02*
X51458714Y-53667819D01*
X51458714Y-53667819D02*
X51363476Y-53620200D01*
X51363476Y-53620200D02*
X51315857Y-53572580D01*
X66757142Y-59776319D02*
X66423809Y-59300128D01*
X66185714Y-59776319D02*
X66185714Y-58776319D01*
X66185714Y-58776319D02*
X66566666Y-58776319D01*
X66566666Y-58776319D02*
X66661904Y-58823938D01*
X66661904Y-58823938D02*
X66709523Y-58871557D01*
X66709523Y-58871557D02*
X66757142Y-58966795D01*
X66757142Y-58966795D02*
X66757142Y-59109652D01*
X66757142Y-59109652D02*
X66709523Y-59204890D01*
X66709523Y-59204890D02*
X66661904Y-59252509D01*
X66661904Y-59252509D02*
X66566666Y-59300128D01*
X66566666Y-59300128D02*
X66185714Y-59300128D01*
X67138095Y-58871557D02*
X67185714Y-58823938D01*
X67185714Y-58823938D02*
X67280952Y-58776319D01*
X67280952Y-58776319D02*
X67519047Y-58776319D01*
X67519047Y-58776319D02*
X67614285Y-58823938D01*
X67614285Y-58823938D02*
X67661904Y-58871557D01*
X67661904Y-58871557D02*
X67709523Y-58966795D01*
X67709523Y-58966795D02*
X67709523Y-59062033D01*
X67709523Y-59062033D02*
X67661904Y-59204890D01*
X67661904Y-59204890D02*
X67090476Y-59776319D01*
X67090476Y-59776319D02*
X67709523Y-59776319D01*
X68661904Y-59776319D02*
X68090476Y-59776319D01*
X68376190Y-59776319D02*
X68376190Y-58776319D01*
X68376190Y-58776319D02*
X68280952Y-58919176D01*
X68280952Y-58919176D02*
X68185714Y-59014414D01*
X68185714Y-59014414D02*
X68090476Y-59062033D01*
X68458810Y-58487319D02*
X68458810Y-57487319D01*
X69506428Y-58392080D02*
X69458809Y-58439700D01*
X69458809Y-58439700D02*
X69315952Y-58487319D01*
X69315952Y-58487319D02*
X69220714Y-58487319D01*
X69220714Y-58487319D02*
X69077857Y-58439700D01*
X69077857Y-58439700D02*
X68982619Y-58344461D01*
X68982619Y-58344461D02*
X68935000Y-58249223D01*
X68935000Y-58249223D02*
X68887381Y-58058747D01*
X68887381Y-58058747D02*
X68887381Y-57915890D01*
X68887381Y-57915890D02*
X68935000Y-57725414D01*
X68935000Y-57725414D02*
X68982619Y-57630176D01*
X68982619Y-57630176D02*
X69077857Y-57534938D01*
X69077857Y-57534938D02*
X69220714Y-57487319D01*
X69220714Y-57487319D02*
X69315952Y-57487319D01*
X69315952Y-57487319D02*
X69458809Y-57534938D01*
X69458809Y-57534938D02*
X69506428Y-57582557D01*
X70458809Y-58487319D02*
X69887381Y-58487319D01*
X70173095Y-58487319D02*
X70173095Y-57487319D01*
X70173095Y-57487319D02*
X70077857Y-57630176D01*
X70077857Y-57630176D02*
X69982619Y-57725414D01*
X69982619Y-57725414D02*
X69887381Y-57773033D01*
X58155905Y-63821319D02*
X58155905Y-62821319D01*
X58155905Y-62821319D02*
X58394000Y-62821319D01*
X58394000Y-62821319D02*
X58536857Y-62868938D01*
X58536857Y-62868938D02*
X58632095Y-62964176D01*
X58632095Y-62964176D02*
X58679714Y-63059414D01*
X58679714Y-63059414D02*
X58727333Y-63249890D01*
X58727333Y-63249890D02*
X58727333Y-63392747D01*
X58727333Y-63392747D02*
X58679714Y-63583223D01*
X58679714Y-63583223D02*
X58632095Y-63678461D01*
X58632095Y-63678461D02*
X58536857Y-63773700D01*
X58536857Y-63773700D02*
X58394000Y-63821319D01*
X58394000Y-63821319D02*
X58155905Y-63821319D01*
X59060667Y-62821319D02*
X59679714Y-62821319D01*
X59679714Y-62821319D02*
X59346381Y-63202271D01*
X59346381Y-63202271D02*
X59489238Y-63202271D01*
X59489238Y-63202271D02*
X59584476Y-63249890D01*
X59584476Y-63249890D02*
X59632095Y-63297509D01*
X59632095Y-63297509D02*
X59679714Y-63392747D01*
X59679714Y-63392747D02*
X59679714Y-63630842D01*
X59679714Y-63630842D02*
X59632095Y-63726080D01*
X59632095Y-63726080D02*
X59584476Y-63773700D01*
X59584476Y-63773700D02*
X59489238Y-63821319D01*
X59489238Y-63821319D02*
X59203524Y-63821319D01*
X59203524Y-63821319D02*
X59108286Y-63773700D01*
X59108286Y-63773700D02*
X59060667Y-63726080D01*
X48714819Y-38266666D02*
X48238628Y-38599999D01*
X48714819Y-38838094D02*
X47714819Y-38838094D01*
X47714819Y-38838094D02*
X47714819Y-38457142D01*
X47714819Y-38457142D02*
X47762438Y-38361904D01*
X47762438Y-38361904D02*
X47810057Y-38314285D01*
X47810057Y-38314285D02*
X47905295Y-38266666D01*
X47905295Y-38266666D02*
X48048152Y-38266666D01*
X48048152Y-38266666D02*
X48143390Y-38314285D01*
X48143390Y-38314285D02*
X48191009Y-38361904D01*
X48191009Y-38361904D02*
X48238628Y-38457142D01*
X48238628Y-38457142D02*
X48238628Y-38838094D01*
X47714819Y-37361904D02*
X47714819Y-37838094D01*
X47714819Y-37838094D02*
X48191009Y-37885713D01*
X48191009Y-37885713D02*
X48143390Y-37838094D01*
X48143390Y-37838094D02*
X48095771Y-37742856D01*
X48095771Y-37742856D02*
X48095771Y-37504761D01*
X48095771Y-37504761D02*
X48143390Y-37409523D01*
X48143390Y-37409523D02*
X48191009Y-37361904D01*
X48191009Y-37361904D02*
X48286247Y-37314285D01*
X48286247Y-37314285D02*
X48524342Y-37314285D01*
X48524342Y-37314285D02*
X48619580Y-37361904D01*
X48619580Y-37361904D02*
X48667200Y-37409523D01*
X48667200Y-37409523D02*
X48714819Y-37504761D01*
X48714819Y-37504761D02*
X48714819Y-37742856D01*
X48714819Y-37742856D02*
X48667200Y-37838094D01*
X48667200Y-37838094D02*
X48619580Y-37885713D01*
X61003333Y-63336319D02*
X60670000Y-62860128D01*
X60431905Y-63336319D02*
X60431905Y-62336319D01*
X60431905Y-62336319D02*
X60812857Y-62336319D01*
X60812857Y-62336319D02*
X60908095Y-62383938D01*
X60908095Y-62383938D02*
X60955714Y-62431557D01*
X60955714Y-62431557D02*
X61003333Y-62526795D01*
X61003333Y-62526795D02*
X61003333Y-62669652D01*
X61003333Y-62669652D02*
X60955714Y-62764890D01*
X60955714Y-62764890D02*
X60908095Y-62812509D01*
X60908095Y-62812509D02*
X60812857Y-62860128D01*
X60812857Y-62860128D02*
X60431905Y-62860128D01*
X61336667Y-62336319D02*
X62003333Y-62336319D01*
X62003333Y-62336319D02*
X61574762Y-63336319D01*
X48410905Y-59763819D02*
X48410905Y-58763819D01*
X48410905Y-58763819D02*
X48649000Y-58763819D01*
X48649000Y-58763819D02*
X48791857Y-58811438D01*
X48791857Y-58811438D02*
X48887095Y-58906676D01*
X48887095Y-58906676D02*
X48934714Y-59001914D01*
X48934714Y-59001914D02*
X48982333Y-59192390D01*
X48982333Y-59192390D02*
X48982333Y-59335247D01*
X48982333Y-59335247D02*
X48934714Y-59525723D01*
X48934714Y-59525723D02*
X48887095Y-59620961D01*
X48887095Y-59620961D02*
X48791857Y-59716200D01*
X48791857Y-59716200D02*
X48649000Y-59763819D01*
X48649000Y-59763819D02*
X48410905Y-59763819D01*
X49839476Y-59097152D02*
X49839476Y-59763819D01*
X49601381Y-58716200D02*
X49363286Y-59430485D01*
X49363286Y-59430485D02*
X49982333Y-59430485D01*
X49093580Y-49944166D02*
X49141200Y-49991785D01*
X49141200Y-49991785D02*
X49188819Y-50134642D01*
X49188819Y-50134642D02*
X49188819Y-50229880D01*
X49188819Y-50229880D02*
X49141200Y-50372737D01*
X49141200Y-50372737D02*
X49045961Y-50467975D01*
X49045961Y-50467975D02*
X48950723Y-50515594D01*
X48950723Y-50515594D02*
X48760247Y-50563213D01*
X48760247Y-50563213D02*
X48617390Y-50563213D01*
X48617390Y-50563213D02*
X48426914Y-50515594D01*
X48426914Y-50515594D02*
X48331676Y-50467975D01*
X48331676Y-50467975D02*
X48236438Y-50372737D01*
X48236438Y-50372737D02*
X48188819Y-50229880D01*
X48188819Y-50229880D02*
X48188819Y-50134642D01*
X48188819Y-50134642D02*
X48236438Y-49991785D01*
X48236438Y-49991785D02*
X48284057Y-49944166D01*
X48284057Y-49563213D02*
X48236438Y-49515594D01*
X48236438Y-49515594D02*
X48188819Y-49420356D01*
X48188819Y-49420356D02*
X48188819Y-49182261D01*
X48188819Y-49182261D02*
X48236438Y-49087023D01*
X48236438Y-49087023D02*
X48284057Y-49039404D01*
X48284057Y-49039404D02*
X48379295Y-48991785D01*
X48379295Y-48991785D02*
X48474533Y-48991785D01*
X48474533Y-48991785D02*
X48617390Y-49039404D01*
X48617390Y-49039404D02*
X49188819Y-49610832D01*
X49188819Y-49610832D02*
X49188819Y-48991785D01*
X54714580Y-55646166D02*
X54762200Y-55693785D01*
X54762200Y-55693785D02*
X54809819Y-55836642D01*
X54809819Y-55836642D02*
X54809819Y-55931880D01*
X54809819Y-55931880D02*
X54762200Y-56074737D01*
X54762200Y-56074737D02*
X54666961Y-56169975D01*
X54666961Y-56169975D02*
X54571723Y-56217594D01*
X54571723Y-56217594D02*
X54381247Y-56265213D01*
X54381247Y-56265213D02*
X54238390Y-56265213D01*
X54238390Y-56265213D02*
X54047914Y-56217594D01*
X54047914Y-56217594D02*
X53952676Y-56169975D01*
X53952676Y-56169975D02*
X53857438Y-56074737D01*
X53857438Y-56074737D02*
X53809819Y-55931880D01*
X53809819Y-55931880D02*
X53809819Y-55836642D01*
X53809819Y-55836642D02*
X53857438Y-55693785D01*
X53857438Y-55693785D02*
X53905057Y-55646166D01*
X53809819Y-54789023D02*
X53809819Y-54979499D01*
X53809819Y-54979499D02*
X53857438Y-55074737D01*
X53857438Y-55074737D02*
X53905057Y-55122356D01*
X53905057Y-55122356D02*
X54047914Y-55217594D01*
X54047914Y-55217594D02*
X54238390Y-55265213D01*
X54238390Y-55265213D02*
X54619342Y-55265213D01*
X54619342Y-55265213D02*
X54714580Y-55217594D01*
X54714580Y-55217594D02*
X54762200Y-55169975D01*
X54762200Y-55169975D02*
X54809819Y-55074737D01*
X54809819Y-55074737D02*
X54809819Y-54884261D01*
X54809819Y-54884261D02*
X54762200Y-54789023D01*
X54762200Y-54789023D02*
X54714580Y-54741404D01*
X54714580Y-54741404D02*
X54619342Y-54693785D01*
X54619342Y-54693785D02*
X54381247Y-54693785D01*
X54381247Y-54693785D02*
X54286009Y-54741404D01*
X54286009Y-54741404D02*
X54238390Y-54789023D01*
X54238390Y-54789023D02*
X54190771Y-54884261D01*
X54190771Y-54884261D02*
X54190771Y-55074737D01*
X54190771Y-55074737D02*
X54238390Y-55169975D01*
X54238390Y-55169975D02*
X54286009Y-55217594D01*
X54286009Y-55217594D02*
X54381247Y-55265213D01*
X59380580Y-56548166D02*
X59428200Y-56595785D01*
X59428200Y-56595785D02*
X59475819Y-56738642D01*
X59475819Y-56738642D02*
X59475819Y-56833880D01*
X59475819Y-56833880D02*
X59428200Y-56976737D01*
X59428200Y-56976737D02*
X59332961Y-57071975D01*
X59332961Y-57071975D02*
X59237723Y-57119594D01*
X59237723Y-57119594D02*
X59047247Y-57167213D01*
X59047247Y-57167213D02*
X58904390Y-57167213D01*
X58904390Y-57167213D02*
X58713914Y-57119594D01*
X58713914Y-57119594D02*
X58618676Y-57071975D01*
X58618676Y-57071975D02*
X58523438Y-56976737D01*
X58523438Y-56976737D02*
X58475819Y-56833880D01*
X58475819Y-56833880D02*
X58475819Y-56738642D01*
X58475819Y-56738642D02*
X58523438Y-56595785D01*
X58523438Y-56595785D02*
X58571057Y-56548166D01*
X58809152Y-55691023D02*
X59475819Y-55691023D01*
X58428200Y-55929118D02*
X59142485Y-56167213D01*
X59142485Y-56167213D02*
X59142485Y-55548166D01*
X54099761Y-63789557D02*
X54004523Y-63741938D01*
X54004523Y-63741938D02*
X53909285Y-63646700D01*
X53909285Y-63646700D02*
X53766428Y-63503842D01*
X53766428Y-63503842D02*
X53671190Y-63456223D01*
X53671190Y-63456223D02*
X53575952Y-63456223D01*
X53623571Y-63694319D02*
X53528333Y-63646700D01*
X53528333Y-63646700D02*
X53433095Y-63551461D01*
X53433095Y-63551461D02*
X53385476Y-63360985D01*
X53385476Y-63360985D02*
X53385476Y-63027652D01*
X53385476Y-63027652D02*
X53433095Y-62837176D01*
X53433095Y-62837176D02*
X53528333Y-62741938D01*
X53528333Y-62741938D02*
X53623571Y-62694319D01*
X53623571Y-62694319D02*
X53814047Y-62694319D01*
X53814047Y-62694319D02*
X53909285Y-62741938D01*
X53909285Y-62741938D02*
X54004523Y-62837176D01*
X54004523Y-62837176D02*
X54052142Y-63027652D01*
X54052142Y-63027652D02*
X54052142Y-63360985D01*
X54052142Y-63360985D02*
X54004523Y-63551461D01*
X54004523Y-63551461D02*
X53909285Y-63646700D01*
X53909285Y-63646700D02*
X53814047Y-63694319D01*
X53814047Y-63694319D02*
X53623571Y-63694319D01*
X54433095Y-62789557D02*
X54480714Y-62741938D01*
X54480714Y-62741938D02*
X54575952Y-62694319D01*
X54575952Y-62694319D02*
X54814047Y-62694319D01*
X54814047Y-62694319D02*
X54909285Y-62741938D01*
X54909285Y-62741938D02*
X54956904Y-62789557D01*
X54956904Y-62789557D02*
X55004523Y-62884795D01*
X55004523Y-62884795D02*
X55004523Y-62980033D01*
X55004523Y-62980033D02*
X54956904Y-63122890D01*
X54956904Y-63122890D02*
X54385476Y-63694319D01*
X54385476Y-63694319D02*
X55004523Y-63694319D01*
X74856333Y-59662080D02*
X74808714Y-59709700D01*
X74808714Y-59709700D02*
X74665857Y-59757319D01*
X74665857Y-59757319D02*
X74570619Y-59757319D01*
X74570619Y-59757319D02*
X74427762Y-59709700D01*
X74427762Y-59709700D02*
X74332524Y-59614461D01*
X74332524Y-59614461D02*
X74284905Y-59519223D01*
X74284905Y-59519223D02*
X74237286Y-59328747D01*
X74237286Y-59328747D02*
X74237286Y-59185890D01*
X74237286Y-59185890D02*
X74284905Y-58995414D01*
X74284905Y-58995414D02*
X74332524Y-58900176D01*
X74332524Y-58900176D02*
X74427762Y-58804938D01*
X74427762Y-58804938D02*
X74570619Y-58757319D01*
X74570619Y-58757319D02*
X74665857Y-58757319D01*
X74665857Y-58757319D02*
X74808714Y-58804938D01*
X74808714Y-58804938D02*
X74856333Y-58852557D01*
X75332524Y-59757319D02*
X75523000Y-59757319D01*
X75523000Y-59757319D02*
X75618238Y-59709700D01*
X75618238Y-59709700D02*
X75665857Y-59662080D01*
X75665857Y-59662080D02*
X75761095Y-59519223D01*
X75761095Y-59519223D02*
X75808714Y-59328747D01*
X75808714Y-59328747D02*
X75808714Y-58947795D01*
X75808714Y-58947795D02*
X75761095Y-58852557D01*
X75761095Y-58852557D02*
X75713476Y-58804938D01*
X75713476Y-58804938D02*
X75618238Y-58757319D01*
X75618238Y-58757319D02*
X75427762Y-58757319D01*
X75427762Y-58757319D02*
X75332524Y-58804938D01*
X75332524Y-58804938D02*
X75284905Y-58852557D01*
X75284905Y-58852557D02*
X75237286Y-58947795D01*
X75237286Y-58947795D02*
X75237286Y-59185890D01*
X75237286Y-59185890D02*
X75284905Y-59281128D01*
X75284905Y-59281128D02*
X75332524Y-59328747D01*
X75332524Y-59328747D02*
X75427762Y-59376366D01*
X75427762Y-59376366D02*
X75618238Y-59376366D01*
X75618238Y-59376366D02*
X75713476Y-59328747D01*
X75713476Y-59328747D02*
X75761095Y-59281128D01*
X75761095Y-59281128D02*
X75808714Y-59185890D01*
X66267142Y-54936319D02*
X65933809Y-54460128D01*
X65695714Y-54936319D02*
X65695714Y-53936319D01*
X65695714Y-53936319D02*
X66076666Y-53936319D01*
X66076666Y-53936319D02*
X66171904Y-53983938D01*
X66171904Y-53983938D02*
X66219523Y-54031557D01*
X66219523Y-54031557D02*
X66267142Y-54126795D01*
X66267142Y-54126795D02*
X66267142Y-54269652D01*
X66267142Y-54269652D02*
X66219523Y-54364890D01*
X66219523Y-54364890D02*
X66171904Y-54412509D01*
X66171904Y-54412509D02*
X66076666Y-54460128D01*
X66076666Y-54460128D02*
X65695714Y-54460128D01*
X67219523Y-54936319D02*
X66648095Y-54936319D01*
X66933809Y-54936319D02*
X66933809Y-53936319D01*
X66933809Y-53936319D02*
X66838571Y-54079176D01*
X66838571Y-54079176D02*
X66743333Y-54174414D01*
X66743333Y-54174414D02*
X66648095Y-54222033D01*
X67695714Y-54936319D02*
X67886190Y-54936319D01*
X67886190Y-54936319D02*
X67981428Y-54888700D01*
X67981428Y-54888700D02*
X68029047Y-54841080D01*
X68029047Y-54841080D02*
X68124285Y-54698223D01*
X68124285Y-54698223D02*
X68171904Y-54507747D01*
X68171904Y-54507747D02*
X68171904Y-54126795D01*
X68171904Y-54126795D02*
X68124285Y-54031557D01*
X68124285Y-54031557D02*
X68076666Y-53983938D01*
X68076666Y-53983938D02*
X67981428Y-53936319D01*
X67981428Y-53936319D02*
X67790952Y-53936319D01*
X67790952Y-53936319D02*
X67695714Y-53983938D01*
X67695714Y-53983938D02*
X67648095Y-54031557D01*
X67648095Y-54031557D02*
X67600476Y-54126795D01*
X67600476Y-54126795D02*
X67600476Y-54364890D01*
X67600476Y-54364890D02*
X67648095Y-54460128D01*
X67648095Y-54460128D02*
X67695714Y-54507747D01*
X67695714Y-54507747D02*
X67790952Y-54555366D01*
X67790952Y-54555366D02*
X67981428Y-54555366D01*
X67981428Y-54555366D02*
X68076666Y-54507747D01*
X68076666Y-54507747D02*
X68124285Y-54460128D01*
X68124285Y-54460128D02*
X68171904Y-54364890D01*
X57443819Y-58199166D02*
X56967628Y-58532499D01*
X57443819Y-58770594D02*
X56443819Y-58770594D01*
X56443819Y-58770594D02*
X56443819Y-58389642D01*
X56443819Y-58389642D02*
X56491438Y-58294404D01*
X56491438Y-58294404D02*
X56539057Y-58246785D01*
X56539057Y-58246785D02*
X56634295Y-58199166D01*
X56634295Y-58199166D02*
X56777152Y-58199166D01*
X56777152Y-58199166D02*
X56872390Y-58246785D01*
X56872390Y-58246785D02*
X56920009Y-58294404D01*
X56920009Y-58294404D02*
X56967628Y-58389642D01*
X56967628Y-58389642D02*
X56967628Y-58770594D01*
X57443819Y-57722975D02*
X57443819Y-57532499D01*
X57443819Y-57532499D02*
X57396200Y-57437261D01*
X57396200Y-57437261D02*
X57348580Y-57389642D01*
X57348580Y-57389642D02*
X57205723Y-57294404D01*
X57205723Y-57294404D02*
X57015247Y-57246785D01*
X57015247Y-57246785D02*
X56634295Y-57246785D01*
X56634295Y-57246785D02*
X56539057Y-57294404D01*
X56539057Y-57294404D02*
X56491438Y-57342023D01*
X56491438Y-57342023D02*
X56443819Y-57437261D01*
X56443819Y-57437261D02*
X56443819Y-57627737D01*
X56443819Y-57627737D02*
X56491438Y-57722975D01*
X56491438Y-57722975D02*
X56539057Y-57770594D01*
X56539057Y-57770594D02*
X56634295Y-57818213D01*
X56634295Y-57818213D02*
X56872390Y-57818213D01*
X56872390Y-57818213D02*
X56967628Y-57770594D01*
X56967628Y-57770594D02*
X57015247Y-57722975D01*
X57015247Y-57722975D02*
X57062866Y-57627737D01*
X57062866Y-57627737D02*
X57062866Y-57437261D01*
X57062866Y-57437261D02*
X57015247Y-57342023D01*
X57015247Y-57342023D02*
X56967628Y-57294404D01*
X56967628Y-57294404D02*
X56872390Y-57246785D01*
X74784819Y-38048166D02*
X74308628Y-38381499D01*
X74784819Y-38619594D02*
X73784819Y-38619594D01*
X73784819Y-38619594D02*
X73784819Y-38238642D01*
X73784819Y-38238642D02*
X73832438Y-38143404D01*
X73832438Y-38143404D02*
X73880057Y-38095785D01*
X73880057Y-38095785D02*
X73975295Y-38048166D01*
X73975295Y-38048166D02*
X74118152Y-38048166D01*
X74118152Y-38048166D02*
X74213390Y-38095785D01*
X74213390Y-38095785D02*
X74261009Y-38143404D01*
X74261009Y-38143404D02*
X74308628Y-38238642D01*
X74308628Y-38238642D02*
X74308628Y-38619594D01*
X73784819Y-37714832D02*
X73784819Y-37095785D01*
X73784819Y-37095785D02*
X74165771Y-37429118D01*
X74165771Y-37429118D02*
X74165771Y-37286261D01*
X74165771Y-37286261D02*
X74213390Y-37191023D01*
X74213390Y-37191023D02*
X74261009Y-37143404D01*
X74261009Y-37143404D02*
X74356247Y-37095785D01*
X74356247Y-37095785D02*
X74594342Y-37095785D01*
X74594342Y-37095785D02*
X74689580Y-37143404D01*
X74689580Y-37143404D02*
X74737200Y-37191023D01*
X74737200Y-37191023D02*
X74784819Y-37286261D01*
X74784819Y-37286261D02*
X74784819Y-37571975D01*
X74784819Y-37571975D02*
X74737200Y-37667213D01*
X74737200Y-37667213D02*
X74689580Y-37714832D01*
X51728819Y-60961357D02*
X51252628Y-61294690D01*
X51728819Y-61532785D02*
X50728819Y-61532785D01*
X50728819Y-61532785D02*
X50728819Y-61151833D01*
X50728819Y-61151833D02*
X50776438Y-61056595D01*
X50776438Y-61056595D02*
X50824057Y-61008976D01*
X50824057Y-61008976D02*
X50919295Y-60961357D01*
X50919295Y-60961357D02*
X51062152Y-60961357D01*
X51062152Y-60961357D02*
X51157390Y-61008976D01*
X51157390Y-61008976D02*
X51205009Y-61056595D01*
X51205009Y-61056595D02*
X51252628Y-61151833D01*
X51252628Y-61151833D02*
X51252628Y-61532785D01*
X51728819Y-60008976D02*
X51728819Y-60580404D01*
X51728819Y-60294690D02*
X50728819Y-60294690D01*
X50728819Y-60294690D02*
X50871676Y-60389928D01*
X50871676Y-60389928D02*
X50966914Y-60485166D01*
X50966914Y-60485166D02*
X51014533Y-60580404D01*
X50824057Y-59628023D02*
X50776438Y-59580404D01*
X50776438Y-59580404D02*
X50728819Y-59485166D01*
X50728819Y-59485166D02*
X50728819Y-59247071D01*
X50728819Y-59247071D02*
X50776438Y-59151833D01*
X50776438Y-59151833D02*
X50824057Y-59104214D01*
X50824057Y-59104214D02*
X50919295Y-59056595D01*
X50919295Y-59056595D02*
X51014533Y-59056595D01*
X51014533Y-59056595D02*
X51157390Y-59104214D01*
X51157390Y-59104214D02*
X51728819Y-59675642D01*
X51728819Y-59675642D02*
X51728819Y-59056595D01*
X49127580Y-51982666D02*
X49175200Y-52030285D01*
X49175200Y-52030285D02*
X49222819Y-52173142D01*
X49222819Y-52173142D02*
X49222819Y-52268380D01*
X49222819Y-52268380D02*
X49175200Y-52411237D01*
X49175200Y-52411237D02*
X49079961Y-52506475D01*
X49079961Y-52506475D02*
X48984723Y-52554094D01*
X48984723Y-52554094D02*
X48794247Y-52601713D01*
X48794247Y-52601713D02*
X48651390Y-52601713D01*
X48651390Y-52601713D02*
X48460914Y-52554094D01*
X48460914Y-52554094D02*
X48365676Y-52506475D01*
X48365676Y-52506475D02*
X48270438Y-52411237D01*
X48270438Y-52411237D02*
X48222819Y-52268380D01*
X48222819Y-52268380D02*
X48222819Y-52173142D01*
X48222819Y-52173142D02*
X48270438Y-52030285D01*
X48270438Y-52030285D02*
X48318057Y-51982666D01*
X48222819Y-51649332D02*
X48222819Y-51030285D01*
X48222819Y-51030285D02*
X48603771Y-51363618D01*
X48603771Y-51363618D02*
X48603771Y-51220761D01*
X48603771Y-51220761D02*
X48651390Y-51125523D01*
X48651390Y-51125523D02*
X48699009Y-51077904D01*
X48699009Y-51077904D02*
X48794247Y-51030285D01*
X48794247Y-51030285D02*
X49032342Y-51030285D01*
X49032342Y-51030285D02*
X49127580Y-51077904D01*
X49127580Y-51077904D02*
X49175200Y-51125523D01*
X49175200Y-51125523D02*
X49222819Y-51220761D01*
X49222819Y-51220761D02*
X49222819Y-51506475D01*
X49222819Y-51506475D02*
X49175200Y-51601713D01*
X49175200Y-51601713D02*
X49127580Y-51649332D01*
X64784819Y-63204357D02*
X64308628Y-63537690D01*
X64784819Y-63775785D02*
X63784819Y-63775785D01*
X63784819Y-63775785D02*
X63784819Y-63394833D01*
X63784819Y-63394833D02*
X63832438Y-63299595D01*
X63832438Y-63299595D02*
X63880057Y-63251976D01*
X63880057Y-63251976D02*
X63975295Y-63204357D01*
X63975295Y-63204357D02*
X64118152Y-63204357D01*
X64118152Y-63204357D02*
X64213390Y-63251976D01*
X64213390Y-63251976D02*
X64261009Y-63299595D01*
X64261009Y-63299595D02*
X64308628Y-63394833D01*
X64308628Y-63394833D02*
X64308628Y-63775785D01*
X63880057Y-62823404D02*
X63832438Y-62775785D01*
X63832438Y-62775785D02*
X63784819Y-62680547D01*
X63784819Y-62680547D02*
X63784819Y-62442452D01*
X63784819Y-62442452D02*
X63832438Y-62347214D01*
X63832438Y-62347214D02*
X63880057Y-62299595D01*
X63880057Y-62299595D02*
X63975295Y-62251976D01*
X63975295Y-62251976D02*
X64070533Y-62251976D01*
X64070533Y-62251976D02*
X64213390Y-62299595D01*
X64213390Y-62299595D02*
X64784819Y-62871023D01*
X64784819Y-62871023D02*
X64784819Y-62251976D01*
X63784819Y-61632928D02*
X63784819Y-61537690D01*
X63784819Y-61537690D02*
X63832438Y-61442452D01*
X63832438Y-61442452D02*
X63880057Y-61394833D01*
X63880057Y-61394833D02*
X63975295Y-61347214D01*
X63975295Y-61347214D02*
X64165771Y-61299595D01*
X64165771Y-61299595D02*
X64403866Y-61299595D01*
X64403866Y-61299595D02*
X64594342Y-61347214D01*
X64594342Y-61347214D02*
X64689580Y-61394833D01*
X64689580Y-61394833D02*
X64737200Y-61442452D01*
X64737200Y-61442452D02*
X64784819Y-61537690D01*
X64784819Y-61537690D02*
X64784819Y-61632928D01*
X64784819Y-61632928D02*
X64737200Y-61728166D01*
X64737200Y-61728166D02*
X64689580Y-61775785D01*
X64689580Y-61775785D02*
X64594342Y-61823404D01*
X64594342Y-61823404D02*
X64403866Y-61871023D01*
X64403866Y-61871023D02*
X64165771Y-61871023D01*
X64165771Y-61871023D02*
X63975295Y-61823404D01*
X63975295Y-61823404D02*
X63880057Y-61775785D01*
X63880057Y-61775785D02*
X63832438Y-61728166D01*
X63832438Y-61728166D02*
X63784819Y-61632928D01*
X75731819Y-55278166D02*
X75255628Y-55611499D01*
X75731819Y-55849594D02*
X74731819Y-55849594D01*
X74731819Y-55849594D02*
X74731819Y-55468642D01*
X74731819Y-55468642D02*
X74779438Y-55373404D01*
X74779438Y-55373404D02*
X74827057Y-55325785D01*
X74827057Y-55325785D02*
X74922295Y-55278166D01*
X74922295Y-55278166D02*
X75065152Y-55278166D01*
X75065152Y-55278166D02*
X75160390Y-55325785D01*
X75160390Y-55325785D02*
X75208009Y-55373404D01*
X75208009Y-55373404D02*
X75255628Y-55468642D01*
X75255628Y-55468642D02*
X75255628Y-55849594D01*
X75731819Y-54325785D02*
X75731819Y-54897213D01*
X75731819Y-54611499D02*
X74731819Y-54611499D01*
X74731819Y-54611499D02*
X74874676Y-54706737D01*
X74874676Y-54706737D02*
X74969914Y-54801975D01*
X74969914Y-54801975D02*
X75017533Y-54897213D01*
X71948095Y-65088700D02*
X72090952Y-65136319D01*
X72090952Y-65136319D02*
X72329047Y-65136319D01*
X72329047Y-65136319D02*
X72424285Y-65088700D01*
X72424285Y-65088700D02*
X72471904Y-65041080D01*
X72471904Y-65041080D02*
X72519523Y-64945842D01*
X72519523Y-64945842D02*
X72519523Y-64850604D01*
X72519523Y-64850604D02*
X72471904Y-64755366D01*
X72471904Y-64755366D02*
X72424285Y-64707747D01*
X72424285Y-64707747D02*
X72329047Y-64660128D01*
X72329047Y-64660128D02*
X72138571Y-64612509D01*
X72138571Y-64612509D02*
X72043333Y-64564890D01*
X72043333Y-64564890D02*
X71995714Y-64517271D01*
X71995714Y-64517271D02*
X71948095Y-64422033D01*
X71948095Y-64422033D02*
X71948095Y-64326795D01*
X71948095Y-64326795D02*
X71995714Y-64231557D01*
X71995714Y-64231557D02*
X72043333Y-64183938D01*
X72043333Y-64183938D02*
X72138571Y-64136319D01*
X72138571Y-64136319D02*
X72376666Y-64136319D01*
X72376666Y-64136319D02*
X72519523Y-64183938D01*
X73471904Y-65136319D02*
X72900476Y-65136319D01*
X73186190Y-65136319D02*
X73186190Y-64136319D01*
X73186190Y-64136319D02*
X73090952Y-64279176D01*
X73090952Y-64279176D02*
X72995714Y-64374414D01*
X72995714Y-64374414D02*
X72900476Y-64422033D01*
X70570142Y-54804319D02*
X70236809Y-54328128D01*
X69998714Y-54804319D02*
X69998714Y-53804319D01*
X69998714Y-53804319D02*
X70379666Y-53804319D01*
X70379666Y-53804319D02*
X70474904Y-53851938D01*
X70474904Y-53851938D02*
X70522523Y-53899557D01*
X70522523Y-53899557D02*
X70570142Y-53994795D01*
X70570142Y-53994795D02*
X70570142Y-54137652D01*
X70570142Y-54137652D02*
X70522523Y-54232890D01*
X70522523Y-54232890D02*
X70474904Y-54280509D01*
X70474904Y-54280509D02*
X70379666Y-54328128D01*
X70379666Y-54328128D02*
X69998714Y-54328128D01*
X71522523Y-54804319D02*
X70951095Y-54804319D01*
X71236809Y-54804319D02*
X71236809Y-53804319D01*
X71236809Y-53804319D02*
X71141571Y-53947176D01*
X71141571Y-53947176D02*
X71046333Y-54042414D01*
X71046333Y-54042414D02*
X70951095Y-54090033D01*
X72093952Y-54232890D02*
X71998714Y-54185271D01*
X71998714Y-54185271D02*
X71951095Y-54137652D01*
X71951095Y-54137652D02*
X71903476Y-54042414D01*
X71903476Y-54042414D02*
X71903476Y-53994795D01*
X71903476Y-53994795D02*
X71951095Y-53899557D01*
X71951095Y-53899557D02*
X71998714Y-53851938D01*
X71998714Y-53851938D02*
X72093952Y-53804319D01*
X72093952Y-53804319D02*
X72284428Y-53804319D01*
X72284428Y-53804319D02*
X72379666Y-53851938D01*
X72379666Y-53851938D02*
X72427285Y-53899557D01*
X72427285Y-53899557D02*
X72474904Y-53994795D01*
X72474904Y-53994795D02*
X72474904Y-54042414D01*
X72474904Y-54042414D02*
X72427285Y-54137652D01*
X72427285Y-54137652D02*
X72379666Y-54185271D01*
X72379666Y-54185271D02*
X72284428Y-54232890D01*
X72284428Y-54232890D02*
X72093952Y-54232890D01*
X72093952Y-54232890D02*
X71998714Y-54280509D01*
X71998714Y-54280509D02*
X71951095Y-54328128D01*
X71951095Y-54328128D02*
X71903476Y-54423366D01*
X71903476Y-54423366D02*
X71903476Y-54613842D01*
X71903476Y-54613842D02*
X71951095Y-54709080D01*
X71951095Y-54709080D02*
X71998714Y-54756700D01*
X71998714Y-54756700D02*
X72093952Y-54804319D01*
X72093952Y-54804319D02*
X72284428Y-54804319D01*
X72284428Y-54804319D02*
X72379666Y-54756700D01*
X72379666Y-54756700D02*
X72427285Y-54709080D01*
X72427285Y-54709080D02*
X72474904Y-54613842D01*
X72474904Y-54613842D02*
X72474904Y-54423366D01*
X72474904Y-54423366D02*
X72427285Y-54328128D01*
X72427285Y-54328128D02*
X72379666Y-54280509D01*
X72379666Y-54280509D02*
X72284428Y-54232890D01*
X70907200Y-51583404D02*
X70954819Y-51440547D01*
X70954819Y-51440547D02*
X70954819Y-51202452D01*
X70954819Y-51202452D02*
X70907200Y-51107214D01*
X70907200Y-51107214D02*
X70859580Y-51059595D01*
X70859580Y-51059595D02*
X70764342Y-51011976D01*
X70764342Y-51011976D02*
X70669104Y-51011976D01*
X70669104Y-51011976D02*
X70573866Y-51059595D01*
X70573866Y-51059595D02*
X70526247Y-51107214D01*
X70526247Y-51107214D02*
X70478628Y-51202452D01*
X70478628Y-51202452D02*
X70431009Y-51392928D01*
X70431009Y-51392928D02*
X70383390Y-51488166D01*
X70383390Y-51488166D02*
X70335771Y-51535785D01*
X70335771Y-51535785D02*
X70240533Y-51583404D01*
X70240533Y-51583404D02*
X70145295Y-51583404D01*
X70145295Y-51583404D02*
X70050057Y-51535785D01*
X70050057Y-51535785D02*
X70002438Y-51488166D01*
X70002438Y-51488166D02*
X69954819Y-51392928D01*
X69954819Y-51392928D02*
X69954819Y-51154833D01*
X69954819Y-51154833D02*
X70002438Y-51011976D01*
X70050057Y-50631023D02*
X70002438Y-50583404D01*
X70002438Y-50583404D02*
X69954819Y-50488166D01*
X69954819Y-50488166D02*
X69954819Y-50250071D01*
X69954819Y-50250071D02*
X70002438Y-50154833D01*
X70002438Y-50154833D02*
X70050057Y-50107214D01*
X70050057Y-50107214D02*
X70145295Y-50059595D01*
X70145295Y-50059595D02*
X70240533Y-50059595D01*
X70240533Y-50059595D02*
X70383390Y-50107214D01*
X70383390Y-50107214D02*
X70954819Y-50678642D01*
X70954819Y-50678642D02*
X70954819Y-50059595D01*
X48814819Y-47664666D02*
X48338628Y-47997999D01*
X48814819Y-48236094D02*
X47814819Y-48236094D01*
X47814819Y-48236094D02*
X47814819Y-47855142D01*
X47814819Y-47855142D02*
X47862438Y-47759904D01*
X47862438Y-47759904D02*
X47910057Y-47712285D01*
X47910057Y-47712285D02*
X48005295Y-47664666D01*
X48005295Y-47664666D02*
X48148152Y-47664666D01*
X48148152Y-47664666D02*
X48243390Y-47712285D01*
X48243390Y-47712285D02*
X48291009Y-47759904D01*
X48291009Y-47759904D02*
X48338628Y-47855142D01*
X48338628Y-47855142D02*
X48338628Y-48236094D01*
X48148152Y-46807523D02*
X48814819Y-46807523D01*
X47767200Y-47045618D02*
X48481485Y-47283713D01*
X48481485Y-47283713D02*
X48481485Y-46664666D01*
D14*
G04 #@! TO.C,R8*
X52664379Y-51436000D02*
X52999621Y-51436000D01*
X52664379Y-52196000D02*
X52999621Y-52196000D01*
G04 #@! TO.C,D1*
X50265000Y-45504000D02*
X50265000Y-43219000D01*
X48795000Y-43219000D02*
X48795000Y-45504000D01*
X50265000Y-43219000D02*
X48795000Y-43219000D01*
D11*
G04 #@! TO.C,J2*
X78408000Y-39153500D02*
X72908000Y-39153500D01*
X78408000Y-44653500D02*
X78408000Y-39153500D01*
X73958000Y-44653500D02*
X78408000Y-44653500D01*
D14*
G04 #@! TO.C,C1*
X73243000Y-55747080D02*
X73243000Y-55465920D01*
X74263000Y-55747080D02*
X74263000Y-55465920D01*
G04 #@! TO.C,D2*
X48795000Y-40094000D02*
X48795000Y-42379000D01*
X50265000Y-42379000D02*
X50265000Y-40094000D01*
X48795000Y-42379000D02*
X50265000Y-42379000D01*
G04 #@! TO.C,R6*
X56902621Y-54729500D02*
X56567379Y-54729500D01*
X56902621Y-53969500D02*
X56567379Y-53969500D01*
G04 #@! TO.C,R2*
X74387000Y-35475379D02*
X74387000Y-35810621D01*
X73627000Y-35475379D02*
X73627000Y-35810621D01*
D11*
G04 #@! TO.C,U2*
X63278000Y-60586000D02*
G75*
G03*
X63278000Y-60586000I-100000J0D01*
G01*
D15*
X63893000Y-57376000D02*
X64563000Y-57376000D01*
X65678000Y-57846000D02*
X65678000Y-58506000D01*
X62778000Y-58506000D02*
X62778000Y-57846000D01*
D13*
G04 #@! TO.C,U1*
X68678080Y-50866760D02*
X68678080Y-30866800D01*
X68678080Y-30866800D02*
X53681920Y-30866800D01*
X53681920Y-50866760D02*
X68678080Y-50866760D01*
X53681920Y-30866800D02*
X53681920Y-50866760D01*
D14*
G04 #@! TO.C,R13*
X51781000Y-55057879D02*
X51781000Y-55393121D01*
X51021000Y-55057879D02*
X51021000Y-55393121D01*
G04 #@! TO.C,R21*
X66002879Y-61460500D02*
X66338121Y-61460500D01*
X66002879Y-60700500D02*
X66338121Y-60700500D01*
D11*
G04 #@! TO.C,IC1*
X69109000Y-55357000D02*
X69609000Y-55357000D01*
X69109000Y-56957000D02*
X69109000Y-55357000D01*
X69609000Y-55357000D02*
X69609000Y-56957000D01*
X69609000Y-56957000D02*
X69109000Y-56957000D01*
X70434000Y-57057000D02*
X69959000Y-57057000D01*
D14*
G04 #@! TO.C,D3*
X59744000Y-58328500D02*
X58044000Y-58328500D01*
X59744000Y-58328500D02*
X59744000Y-61588500D01*
X58044000Y-58328500D02*
X58044000Y-61588500D01*
G04 #@! TO.C,R5*
X49150000Y-37932379D02*
X49150000Y-38267621D01*
X49910000Y-37932379D02*
X49910000Y-38267621D01*
G04 #@! TO.C,R7*
X61702500Y-60167276D02*
X61702500Y-60676724D01*
X60657500Y-60167276D02*
X60657500Y-60676724D01*
D13*
G04 #@! TO.C,D4*
X48184000Y-53726250D02*
G75*
G03*
X48184000Y-53726250I-127000J0D01*
G01*
X48946000Y-56393250D02*
X49200000Y-56393250D01*
X49200000Y-56393250D02*
X49200000Y-56139250D01*
X49200000Y-56139250D02*
X48946000Y-56139250D01*
X48946000Y-56139250D02*
X48946000Y-56393250D01*
X48692000Y-56647250D02*
X49454000Y-56647250D01*
X49454000Y-56647250D02*
X49454000Y-55758250D01*
X49454000Y-55758250D02*
X48692000Y-55758250D01*
X48692000Y-55758250D02*
X48692000Y-56647250D01*
D14*
X47938000Y-54666250D02*
X47938000Y-58298250D01*
X50208000Y-58298250D02*
X50208000Y-54666250D01*
X47938000Y-58298250D02*
X50208000Y-58298250D01*
G04 #@! TO.C,C2*
X51319767Y-49648500D02*
X51027233Y-49648500D01*
X51319767Y-50668500D02*
X51027233Y-50668500D01*
G04 #@! TO.C,C6*
X53435000Y-55338920D02*
X53435000Y-55620080D01*
X52415000Y-55338920D02*
X52415000Y-55620080D01*
G04 #@! TO.C,C4*
X56875580Y-56637500D02*
X56594420Y-56637500D01*
X56875580Y-55617500D02*
X56594420Y-55617500D01*
G04 #@! TO.C,Q2*
X55338000Y-59139500D02*
X53538000Y-59139500D01*
X55338000Y-59139500D02*
X56138000Y-59139500D01*
X55338000Y-62259500D02*
X54538000Y-62259500D01*
X55338000Y-62259500D02*
X56138000Y-62259500D01*
G04 #@! TO.C,C9*
X72082733Y-58961000D02*
X72375267Y-58961000D01*
X72082733Y-57941000D02*
X72375267Y-57941000D01*
G04 #@! TO.C,TP1*
X59594000Y-65971500D02*
X58194000Y-65971500D01*
X59594000Y-64571500D02*
X59594000Y-65971500D01*
X58194000Y-65971500D02*
X58194000Y-64571500D01*
X58194000Y-64571500D02*
X59594000Y-64571500D01*
G04 #@! TO.C,R19*
X67148000Y-56459621D02*
X67148000Y-56124379D01*
X66388000Y-56459621D02*
X66388000Y-56124379D01*
G04 #@! TO.C,R9*
X54894121Y-58666500D02*
X54558879Y-58666500D01*
X54894121Y-57906500D02*
X54558879Y-57906500D01*
G04 #@! TO.C,R3*
X72292379Y-37421500D02*
X72627621Y-37421500D01*
X72292379Y-38181500D02*
X72627621Y-38181500D01*
G04 #@! TO.C,R12*
X52924000Y-60150879D02*
X52924000Y-60486121D01*
X52164000Y-60150879D02*
X52164000Y-60486121D01*
G04 #@! TO.C,C3*
X50520836Y-51449500D02*
X50305164Y-51449500D01*
X50520836Y-52169500D02*
X50305164Y-52169500D01*
G04 #@! TO.C,R20*
X66300621Y-62984500D02*
X65965379Y-62984500D01*
X66300621Y-62224500D02*
X65965379Y-62224500D01*
G04 #@! TO.C,R1*
X75530000Y-57565121D02*
X75530000Y-57229879D01*
X74770000Y-57565121D02*
X74770000Y-57229879D01*
D11*
G04 #@! TO.C,S1*
X74290000Y-64989500D02*
G75*
G03*
X74190000Y-64989500I-50000J0D01*
G01*
X74290000Y-64989500D02*
G75*
G03*
X74190000Y-64989500I-50000J0D01*
G01*
X74190000Y-64989500D02*
G75*
G03*
X74290000Y-64989500I50000J0D01*
G01*
D13*
X68640000Y-61641500D02*
X68640000Y-61641500D01*
X68640000Y-61641500D02*
X68640000Y-62141500D01*
X68640000Y-62141500D02*
X68640000Y-61641500D01*
X68640000Y-62141500D02*
X68640000Y-62141500D01*
X69290000Y-60541500D02*
X69290000Y-60541500D01*
X69290000Y-60541500D02*
X74290000Y-60541500D01*
X72040000Y-63241500D02*
X72040000Y-63241500D01*
X72040000Y-63241500D02*
X73040000Y-63241500D01*
X73040000Y-63241500D02*
X72040000Y-63241500D01*
X73040000Y-63241500D02*
X73040000Y-63241500D01*
D11*
X74190000Y-64989500D02*
X74190000Y-64989500D01*
D13*
X74290000Y-60541500D02*
X69290000Y-60541500D01*
X74290000Y-60541500D02*
X74290000Y-60541500D01*
D11*
X74290000Y-64989500D02*
X74290000Y-64989500D01*
X74290000Y-64989500D02*
X74290000Y-64989500D01*
D13*
X74940000Y-61641500D02*
X74940000Y-61641500D01*
X74940000Y-61641500D02*
X74940000Y-62141500D01*
X74940000Y-62141500D02*
X74940000Y-61641500D01*
X74940000Y-62141500D02*
X74940000Y-62141500D01*
D14*
G04 #@! TO.C,R18*
X72355000Y-56459621D02*
X72355000Y-56124379D01*
X71595000Y-56459621D02*
X71595000Y-56124379D01*
D11*
G04 #@! TO.C,S2*
X70647000Y-51777500D02*
G75*
G03*
X70647000Y-51677500I0J50000D01*
G01*
X70647000Y-51777500D02*
G75*
G03*
X70647000Y-51677500I0J50000D01*
G01*
X70647000Y-51677500D02*
G75*
G03*
X70647000Y-51777500I0J-50000D01*
G01*
D13*
X73995000Y-46127500D02*
X73995000Y-46127500D01*
X73995000Y-46127500D02*
X73495000Y-46127500D01*
X73495000Y-46127500D02*
X73995000Y-46127500D01*
X73495000Y-46127500D02*
X73495000Y-46127500D01*
X75095000Y-46777500D02*
X75095000Y-46777500D01*
X75095000Y-46777500D02*
X75095000Y-51777500D01*
X72395000Y-49527500D02*
X72395000Y-49527500D01*
X72395000Y-49527500D02*
X72395000Y-50527500D01*
X72395000Y-50527500D02*
X72395000Y-49527500D01*
X72395000Y-50527500D02*
X72395000Y-50527500D01*
D11*
X70647000Y-51677500D02*
X70647000Y-51677500D01*
D13*
X75095000Y-51777500D02*
X75095000Y-46777500D01*
X75095000Y-51777500D02*
X75095000Y-51777500D01*
D11*
X70647000Y-51777500D02*
X70647000Y-51777500D01*
X70647000Y-51777500D02*
X70647000Y-51777500D01*
D13*
X73995000Y-52427500D02*
X73995000Y-52427500D01*
X73995000Y-52427500D02*
X73495000Y-52427500D01*
X73495000Y-52427500D02*
X73995000Y-52427500D01*
X73495000Y-52427500D02*
X73495000Y-52427500D01*
D14*
G04 #@! TO.C,R4*
X49150000Y-47665621D02*
X49150000Y-47330379D01*
X49910000Y-47665621D02*
X49910000Y-47330379D01*
G04 #@! TD*
%LPC*%
D16*
G04 #@! TO.C,R8*
X52234500Y-51816000D03*
X53429500Y-51816000D03*
G04 #@! TD*
D17*
G04 #@! TO.C,D1*
X49530000Y-45491500D03*
X49530000Y-43916500D03*
G04 #@! TD*
D18*
G04 #@! TO.C,J2*
X73958000Y-43153500D03*
D19*
X73958000Y-41903500D03*
X73958000Y-40653500D03*
G04 #@! TD*
D20*
G04 #@! TO.C,C1*
X73753000Y-56381500D03*
X73753000Y-54831500D03*
G04 #@! TD*
D21*
G04 #@! TO.C,D2*
X49530000Y-40106500D03*
X49530000Y-41681500D03*
G04 #@! TD*
D22*
G04 #@! TO.C,R6*
X57332500Y-54349500D03*
X56137500Y-54349500D03*
G04 #@! TD*
D23*
G04 #@! TO.C,R2*
X74007000Y-35045500D03*
X74007000Y-36240500D03*
G04 #@! TD*
D24*
G04 #@! TO.C,U2*
X63278000Y-56921000D03*
X65178000Y-56921000D03*
X65178000Y-59431000D03*
X64228000Y-59431000D03*
X63278000Y-59431000D03*
G04 #@! TD*
D25*
G04 #@! TO.C,U1*
X68678080Y-36419240D03*
X68678080Y-37519060D03*
X68678080Y-38618880D03*
X68678080Y-39718700D03*
X68678080Y-40818520D03*
X68678080Y-41918340D03*
X68678080Y-43018160D03*
X68678080Y-44117980D03*
X68678080Y-45217800D03*
X68678080Y-46317620D03*
X68678080Y-47417440D03*
X68678080Y-48517260D03*
D26*
X67227740Y-50866760D03*
X66127920Y-50866760D03*
X65028100Y-50866760D03*
X63928280Y-50866760D03*
X62828460Y-50866760D03*
X61728640Y-50866760D03*
X60631360Y-50866760D03*
X59531540Y-50866760D03*
X58431720Y-50866760D03*
X57331900Y-50866760D03*
X56232080Y-50866760D03*
X55132260Y-50866760D03*
D25*
X53681920Y-48517260D03*
X53681920Y-47417440D03*
X53681920Y-46317620D03*
X53681920Y-45217800D03*
X53681920Y-44117980D03*
X53681920Y-43018160D03*
X53681920Y-41918340D03*
X53681920Y-40818520D03*
X53681920Y-39718700D03*
X53681920Y-38618880D03*
X53681920Y-37519060D03*
X53681920Y-36419240D03*
G04 #@! TD*
D23*
G04 #@! TO.C,R13*
X51401000Y-54628000D03*
X51401000Y-55823000D03*
G04 #@! TD*
D16*
G04 #@! TO.C,R21*
X66768000Y-61080500D03*
X65573000Y-61080500D03*
G04 #@! TD*
D27*
G04 #@! TO.C,IC1*
X68521000Y-56657000D03*
X68521000Y-56157000D03*
X68521000Y-55657000D03*
X70197000Y-55657000D03*
X70197000Y-56157000D03*
X70197000Y-56657000D03*
G04 #@! TD*
D28*
G04 #@! TO.C,D3*
X58894000Y-59088500D03*
X58894000Y-61588500D03*
G04 #@! TD*
D23*
G04 #@! TO.C,R5*
X49530000Y-38697500D03*
X49530000Y-37502500D03*
G04 #@! TD*
D29*
G04 #@! TO.C,R7*
X61180000Y-59509500D03*
X61180000Y-61334500D03*
G04 #@! TD*
D30*
G04 #@! TO.C,D4*
X49623000Y-57384500D03*
D31*
X48501500Y-57366250D03*
X49623000Y-54615250D03*
X48501500Y-54615250D03*
G04 #@! TD*
D32*
G04 #@! TO.C,C2*
X50311000Y-50158500D03*
X52036000Y-50158500D03*
G04 #@! TD*
D33*
G04 #@! TO.C,C6*
X52925000Y-54704500D03*
X52925000Y-56254500D03*
G04 #@! TD*
D34*
G04 #@! TO.C,C4*
X57510000Y-56127500D03*
X55960000Y-56127500D03*
G04 #@! TD*
D35*
G04 #@! TO.C,REF\u002A\u002A*
X72642000Y-68177500D03*
G04 #@! TD*
D36*
G04 #@! TO.C,Q2*
X54200500Y-59749500D03*
X54200500Y-61649500D03*
X56475500Y-60699500D03*
G04 #@! TD*
D37*
G04 #@! TO.C,C9*
X73091500Y-58451000D03*
X71366500Y-58451000D03*
G04 #@! TD*
D38*
G04 #@! TO.C,TP1*
X58894000Y-65271500D03*
G04 #@! TD*
D39*
G04 #@! TO.C,R19*
X66768000Y-55694500D03*
X66768000Y-56889500D03*
G04 #@! TD*
D22*
G04 #@! TO.C,R9*
X55324000Y-58286500D03*
X54129000Y-58286500D03*
G04 #@! TD*
D16*
G04 #@! TO.C,R3*
X71862500Y-37801500D03*
X73057500Y-37801500D03*
G04 #@! TD*
D23*
G04 #@! TO.C,R12*
X52544000Y-59721000D03*
X52544000Y-60916000D03*
G04 #@! TD*
D40*
G04 #@! TO.C,C3*
X49933000Y-51809500D03*
X50893000Y-51809500D03*
G04 #@! TD*
D22*
G04 #@! TO.C,R20*
X66730500Y-62604500D03*
X65535500Y-62604500D03*
G04 #@! TD*
D39*
G04 #@! TO.C,R1*
X75150000Y-56800000D03*
X75150000Y-57995000D03*
G04 #@! TD*
D41*
G04 #@! TO.C,S1*
X75240000Y-62941500D03*
X75240000Y-60841500D03*
X68340000Y-60841500D03*
X68340000Y-62941500D03*
D42*
X69540000Y-63741500D03*
X71040000Y-63741500D03*
X74040000Y-63741500D03*
D43*
X70290000Y-61891500D03*
X73290000Y-61891500D03*
G04 #@! TD*
D35*
G04 #@! TO.C,REF\u002A\u002A*
X49718000Y-68177500D03*
G04 #@! TD*
D39*
G04 #@! TO.C,R18*
X71975000Y-55694500D03*
X71975000Y-56889500D03*
G04 #@! TD*
D44*
G04 #@! TO.C,S2*
X72695000Y-52727500D03*
X74795000Y-52727500D03*
X74795000Y-45827500D03*
X72695000Y-45827500D03*
D45*
X71895000Y-47027500D03*
X71895000Y-48527500D03*
X71895000Y-51527500D03*
D43*
X73745000Y-47777500D03*
X73745000Y-50777500D03*
G04 #@! TD*
D39*
G04 #@! TO.C,R4*
X49530000Y-48095500D03*
X49530000Y-46900500D03*
G04 #@! TD*
%LPD*%
M02*
